solid OpenSCAD_Model
  facet normal 0.995565 0.09408 0
    outer loop
      vertex 31.1384 1.95906 10
      vertex 30.954 3.9104 0
      vertex 30.954 3.9104 10
    endloop
  endfacet
  facet normal 0.995565 0.09408 0
    outer loop
      vertex 30.954 3.9104 0
      vertex 31.1384 1.95906 10
      vertex 31.1384 1.95906 0
    endloop
  endfacet
  facet normal 0.999506 0.0314281 0
    outer loop
      vertex 31.2 0 10
      vertex 31.1384 1.95906 0
      vertex 31.1384 1.95906 10
    endloop
  endfacet
  facet normal 0.999506 0.0314281 0
    outer loop
      vertex 31.1384 1.95906 0
      vertex 31.2 0 10
      vertex 31.2 0 0
    endloop
  endfacet
  facet normal -0.960298 -0.278976 0
    outer loop
      vertex -29.673 -9.64133 0
      vertex -30.2198 -7.75912 10
      vertex -30.2198 -7.75912 0
    endloop
  endfacet
  facet normal -0.960298 -0.278976 0
    outer loop
      vertex -30.2198 -7.75912 10
      vertex -29.673 -9.64133 0
      vertex -29.673 -9.64133 10
    endloop
  endfacet
  facet normal 0.21816 -0.975913 0
    outer loop
      vertex 5.8463 -30.6474 0
      vertex 7.75912 -30.2198 10
      vertex 5.8463 -30.6474 10
    endloop
  endfacet
  facet normal 0.21816 -0.975913 0
    outer loop
      vertex 7.75912 -30.2198 10
      vertex 5.8463 -30.6474 0
      vertex 7.75912 -30.2198 0
    endloop
  endfacet
  facet normal -0.612909 0.790154 0
    outer loop
      vertex -18.3389 25.2413 0
      vertex -19.8876 24.04 10
      vertex -18.3389 25.2413 10
    endloop
  endfacet
  facet normal -0.612909 0.790154 0
    outer loop
      vertex -19.8876 24.04 10
      vertex -18.3389 25.2413 0
      vertex -19.8876 24.04 0
    endloop
  endfacet
  facet normal 0.940871 0.338764 0
    outer loop
      vertex 29.673 9.64133 10
      vertex 29.009 11.4855 0
      vertex 29.009 11.4855 10
    endloop
  endfacet
  facet normal 0.940871 0.338764 0
    outer loop
      vertex 29.009 11.4855 0
      vertex 29.673 9.64133 10
      vertex 29.673 9.64133 0
    endloop
  endfacet
  facet normal -0.09408 -0.995565 0
    outer loop
      vertex -3.9104 -30.954 0
      vertex -1.95906 -31.1384 10
      vertex -3.9104 -30.954 10
    endloop
  endfacet
  facet normal -0.09408 -0.995565 -0
    outer loop
      vertex -1.95906 -31.1384 10
      vertex -3.9104 -30.954 0
      vertex -1.95906 -31.1384 0
    endloop
  endfacet
  facet normal 0.156426 -0.98769 0
    outer loop
      vertex 3.9104 -30.954 0
      vertex 5.8463 -30.6474 10
      vertex 3.9104 -30.954 10
    endloop
  endfacet
  facet normal 0.156426 -0.98769 0
    outer loop
      vertex 5.8463 -30.6474 10
      vertex 3.9104 -30.954 0
      vertex 5.8463 -30.6474 0
    endloop
  endfacet
  facet normal -0.278976 -0.960298 0
    outer loop
      vertex -9.64133 -29.673 0
      vertex -7.75912 -30.2198 10
      vertex -9.64133 -29.673 10
    endloop
  endfacet
  facet normal -0.278976 -0.960298 -0
    outer loop
      vertex -7.75912 -30.2198 10
      vertex -9.64133 -29.673 0
      vertex -7.75912 -30.2198 0
    endloop
  endfacet
  facet normal -0.509061 0.86073 0
    outer loop
      vertex -15.0307 27.3408 0
      vertex -16.7178 26.343 10
      vertex -15.0307 27.3408 10
    endloop
  endfacet
  facet normal -0.509061 0.86073 0
    outer loop
      vertex -16.7178 26.343 10
      vertex -15.0307 27.3408 0
      vertex -16.7178 26.343 0
    endloop
  endfacet
  facet normal 0.975913 0.21816 0
    outer loop
      vertex 30.6474 5.8463 10
      vertex 30.2198 7.75912 0
      vertex 30.2198 7.75912 10
    endloop
  endfacet
  facet normal 0.975913 0.21816 0
    outer loop
      vertex 30.2198 7.75912 0
      vertex 30.6474 5.8463 10
      vertex 30.6474 5.8463 0
    endloop
  endfacet
  facet normal 0.21816 0.975913 -0
    outer loop
      vertex 7.75912 30.2198 0
      vertex 5.8463 30.6474 10
      vertex 7.75912 30.2198 10
    endloop
  endfacet
  facet normal 0.21816 0.975913 0
    outer loop
      vertex 5.8463 30.6474 10
      vertex 7.75912 30.2198 0
      vertex 5.8463 30.6474 0
    endloop
  endfacet
  facet normal -0.338764 0.940871 0
    outer loop
      vertex -9.64133 29.673 0
      vertex -11.4855 29.009 10
      vertex -9.64133 29.673 10
    endloop
  endfacet
  facet normal -0.338764 0.940871 0
    outer loop
      vertex -11.4855 29.009 10
      vertex -9.64133 29.673 0
      vertex -11.4855 29.009 0
    endloop
  endfacet
  facet normal 0.98769 -0.156426 0
    outer loop
      vertex 30.6474 -5.8463 10
      vertex 30.954 -3.9104 0
      vertex 30.954 -3.9104 10
    endloop
  endfacet
  facet normal 0.98769 -0.156426 0
    outer loop
      vertex 30.954 -3.9104 0
      vertex 30.6474 -5.8463 10
      vertex 30.6474 -5.8463 0
    endloop
  endfacet
  facet normal -0.790154 0.612909 0
    outer loop
      vertex -25.2413 18.3389 0
      vertex -24.04 19.8876 10
      vertex -24.04 19.8876 0
    endloop
  endfacet
  facet normal -0.790154 0.612909 0
    outer loop
      vertex -24.04 19.8876 10
      vertex -25.2413 18.3389 0
      vertex -25.2413 18.3389 10
    endloop
  endfacet
  facet normal -0.790154 -0.612909 0
    outer loop
      vertex -24.04 -19.8876 0
      vertex -25.2413 -18.3389 10
      vertex -25.2413 -18.3389 0
    endloop
  endfacet
  facet normal -0.790154 -0.612909 0
    outer loop
      vertex -25.2413 -18.3389 10
      vertex -24.04 -19.8876 0
      vertex -24.04 -19.8876 10
    endloop
  endfacet
  facet normal 0.562084 0.82708 -0
    outer loop
      vertex 18.3389 25.2413 0
      vertex 16.7178 26.343 10
      vertex 18.3389 25.2413 10
    endloop
  endfacet
  facet normal 0.562084 0.82708 0
    outer loop
      vertex 16.7178 26.343 10
      vertex 18.3389 25.2413 0
      vertex 16.7178 26.343 0
    endloop
  endfacet
  facet normal -0.940871 -0.338764 0
    outer loop
      vertex -29.009 -11.4855 0
      vertex -29.673 -9.64133 10
      vertex -29.673 -9.64133 0
    endloop
  endfacet
  facet normal -0.940871 -0.338764 0
    outer loop
      vertex -29.673 -9.64133 10
      vertex -29.009 -11.4855 0
      vertex -29.009 -11.4855 10
    endloop
  endfacet
  facet normal 0.750122 0.661299 0
    outer loop
      vertex 24.04 19.8876 10
      vertex 22.7438 21.3579 0
      vertex 22.7438 21.3579 10
    endloop
  endfacet
  facet normal 0.750122 0.661299 0
    outer loop
      vertex 22.7438 21.3579 0
      vertex 24.04 19.8876 10
      vertex 24.04 19.8876 0
    endloop
  endfacet
  facet normal 0.960298 0.278976 0
    outer loop
      vertex 30.2198 7.75912 10
      vertex 29.673 9.64133 0
      vertex 29.673 9.64133 10
    endloop
  endfacet
  facet normal 0.960298 0.278976 0
    outer loop
      vertex 29.673 9.64133 0
      vertex 30.2198 7.75912 10
      vertex 30.2198 7.75912 0
    endloop
  endfacet
  facet normal 0.397143 0.917757 -0
    outer loop
      vertex 13.2843 28.2306 0
      vertex 11.4855 29.009 10
      vertex 13.2843 28.2306 10
    endloop
  endfacet
  facet normal 0.397143 0.917757 0
    outer loop
      vertex 11.4855 29.009 10
      vertex 13.2843 28.2306 0
      vertex 11.4855 29.009 0
    endloop
  endfacet
  facet normal 0.509061 0.86073 -0
    outer loop
      vertex 16.7178 26.343 0
      vertex 15.0307 27.3408 10
      vertex 16.7178 26.343 10
    endloop
  endfacet
  facet normal 0.509061 0.86073 0
    outer loop
      vertex 15.0307 27.3408 10
      vertex 16.7178 26.343 0
      vertex 15.0307 27.3408 0
    endloop
  endfacet
  facet normal -0.917757 -0.397143 0
    outer loop
      vertex -28.2306 -13.2843 0
      vertex -29.009 -11.4855 10
      vertex -29.009 -11.4855 0
    endloop
  endfacet
  facet normal -0.917757 -0.397143 0
    outer loop
      vertex -29.009 -11.4855 10
      vertex -28.2306 -13.2843 0
      vertex -28.2306 -13.2843 10
    endloop
  endfacet
  facet normal -0.397143 0.917757 0
    outer loop
      vertex -11.4855 29.009 0
      vertex -13.2843 28.2306 10
      vertex -11.4855 29.009 10
    endloop
  endfacet
  facet normal -0.397143 0.917757 0
    outer loop
      vertex -13.2843 28.2306 10
      vertex -11.4855 29.009 0
      vertex -13.2843 28.2306 0
    endloop
  endfacet
  facet normal 0.960298 -0.278976 0
    outer loop
      vertex 29.673 -9.64133 10
      vertex 30.2198 -7.75912 0
      vertex 30.2198 -7.75912 10
    endloop
  endfacet
  facet normal 0.960298 -0.278976 0
    outer loop
      vertex 30.2198 -7.75912 0
      vertex 29.673 -9.64133 10
      vertex 29.673 -9.64133 0
    endloop
  endfacet
  facet normal -0.999506 0.0314281 0
    outer loop
      vertex -31.2 0 0
      vertex -31.1384 1.95906 10
      vertex -31.1384 1.95906 0
    endloop
  endfacet
  facet normal -0.999506 0.0314281 0
    outer loop
      vertex -31.1384 1.95906 10
      vertex -31.2 0 0
      vertex -31.2 0 10
    endloop
  endfacet
  facet normal -0.999506 -0.0314281 0
    outer loop
      vertex -31.1384 -1.95906 0
      vertex -31.2 0 10
      vertex -31.2 0 0
    endloop
  endfacet
  facet normal -0.999506 -0.0314281 0
    outer loop
      vertex -31.2 0 10
      vertex -31.1384 -1.95906 0
      vertex -31.1384 -1.95906 10
    endloop
  endfacet
  facet normal -0.960298 0.278976 0
    outer loop
      vertex -30.2198 7.75912 0
      vertex -29.673 9.64133 10
      vertex -29.673 9.64133 0
    endloop
  endfacet
  facet normal -0.960298 0.278976 0
    outer loop
      vertex -29.673 9.64133 10
      vertex -30.2198 7.75912 0
      vertex -30.2198 7.75912 10
    endloop
  endfacet
  facet normal 0.0314281 -0.999506 0
    outer loop
      vertex 0 -31.2 0
      vertex 1.95906 -31.1384 10
      vertex 0 -31.2 10
    endloop
  endfacet
  facet normal 0.0314281 -0.999506 0
    outer loop
      vertex 1.95906 -31.1384 10
      vertex 0 -31.2 0
      vertex 1.95906 -31.1384 0
    endloop
  endfacet
  facet normal -0.09408 0.995565 0
    outer loop
      vertex -1.95906 31.1384 0
      vertex -3.9104 30.954 10
      vertex -1.95906 31.1384 10
    endloop
  endfacet
  facet normal -0.09408 0.995565 0
    outer loop
      vertex -3.9104 30.954 10
      vertex -1.95906 31.1384 0
      vertex -3.9104 30.954 0
    endloop
  endfacet
  facet normal 0.790154 0.612909 0
    outer loop
      vertex 25.2413 18.3389 10
      vertex 24.04 19.8876 0
      vertex 24.04 19.8876 10
    endloop
  endfacet
  facet normal 0.790154 0.612909 0
    outer loop
      vertex 24.04 19.8876 0
      vertex 25.2413 18.3389 10
      vertex 25.2413 18.3389 0
    endloop
  endfacet
  facet normal 0.278976 -0.960298 0
    outer loop
      vertex 7.75912 -30.2198 0
      vertex 9.64133 -29.673 10
      vertex 7.75912 -30.2198 10
    endloop
  endfacet
  facet normal 0.278976 -0.960298 0
    outer loop
      vertex 9.64133 -29.673 10
      vertex 7.75912 -30.2198 0
      vertex 9.64133 -29.673 0
    endloop
  endfacet
  facet normal -0.338764 -0.940871 0
    outer loop
      vertex -11.4855 -29.009 0
      vertex -9.64133 -29.673 10
      vertex -11.4855 -29.009 10
    endloop
  endfacet
  facet normal -0.338764 -0.940871 -0
    outer loop
      vertex -9.64133 -29.673 10
      vertex -11.4855 -29.009 0
      vertex -9.64133 -29.673 0
    endloop
  endfacet
  facet normal -0.0314281 -0.999506 0
    outer loop
      vertex -1.95906 -31.1384 0
      vertex 0 -31.2 10
      vertex -1.95906 -31.1384 10
    endloop
  endfacet
  facet normal -0.0314281 -0.999506 -0
    outer loop
      vertex 0 -31.2 10
      vertex -1.95906 -31.1384 0
      vertex 0 -31.2 0
    endloop
  endfacet
  facet normal -0.707107 -0.707107 0
    outer loop
      vertex -21.3579 -22.7438 0
      vertex -22.7438 -21.3579 10
      vertex -22.7438 -21.3579 0
    endloop
  endfacet
  facet normal -0.707107 -0.707107 0
    outer loop
      vertex -22.7438 -21.3579 10
      vertex -21.3579 -22.7438 0
      vertex -21.3579 -22.7438 10
    endloop
  endfacet
  facet normal -0.156426 0.98769 0
    outer loop
      vertex -3.9104 30.954 0
      vertex -5.8463 30.6474 10
      vertex -3.9104 30.954 10
    endloop
  endfacet
  facet normal -0.156426 0.98769 0
    outer loop
      vertex -5.8463 30.6474 10
      vertex -3.9104 30.954 0
      vertex -5.8463 30.6474 0
    endloop
  endfacet
  facet normal 0.98769 0.156426 0
    outer loop
      vertex 30.954 3.9104 10
      vertex 30.6474 5.8463 0
      vertex 30.6474 5.8463 10
    endloop
  endfacet
  facet normal 0.98769 0.156426 0
    outer loop
      vertex 30.6474 5.8463 0
      vertex 30.954 3.9104 10
      vertex 30.954 3.9104 0
    endloop
  endfacet
  facet normal -0.975913 0.21816 0
    outer loop
      vertex -30.6474 5.8463 0
      vertex -30.2198 7.75912 10
      vertex -30.2198 7.75912 0
    endloop
  endfacet
  facet normal -0.975913 0.21816 0
    outer loop
      vertex -30.2198 7.75912 10
      vertex -30.6474 5.8463 0
      vertex -30.6474 5.8463 10
    endloop
  endfacet
  facet normal 0.707107 0.707107 0
    outer loop
      vertex 22.7438 21.3579 10
      vertex 21.3579 22.7438 0
      vertex 21.3579 22.7438 10
    endloop
  endfacet
  facet normal 0.707107 0.707107 0
    outer loop
      vertex 21.3579 22.7438 0
      vertex 22.7438 21.3579 10
      vertex 22.7438 21.3579 0
    endloop
  endfacet
  facet normal 0 0 -1
    outer loop
      vertex 29.3072 -1.2 0
      vertex 4.47845 1.2 0
      vertex 29.3072 1.2 0
    endloop
  endfacet
  facet normal -0 0 -1
    outer loop
      vertex 4.47845 1.2 0
      vertex 0 -1.2 0
      vertex 3.27846 3.27846 0
    endloop
  endfacet
  facet normal 0 0 -1
    outer loop
      vertex 0 -1.2 0
      vertex 4.47845 1.2 0
      vertex 29.3072 -1.2 0
    endloop
  endfacet
  facet normal 0 0 -1
    outer loop
      vertex 29.3072 -1.2 0
      vertex 31.2 0 0
      vertex 31.1384 -1.95906 0
    endloop
  endfacet
  facet normal 0 0 -1
    outer loop
      vertex 29.3072 -1.2 0
      vertex 31.1384 -1.95906 0
      vertex 30.954 -3.9104 0
    endloop
  endfacet
  facet normal 0 0 -1
    outer loop
      vertex 29.3072 1.2 0
      vertex 31.2 0 0
      vertex 29.3072 -1.2 0
    endloop
  endfacet
  facet normal 0 0 -1
    outer loop
      vertex 29.3072 -1.2 0
      vertex 30.954 -3.9104 0
      vertex 30.6474 -5.8463 0
    endloop
  endfacet
  facet normal 0 0 -1
    outer loop
      vertex 31.2 0 0
      vertex 29.3072 1.2 0
      vertex 31.1384 1.95906 0
    endloop
  endfacet
  facet normal 0 0 -1
    outer loop
      vertex 29.3072 -1.2 0
      vertex 30.6474 -5.8463 0
      vertex 30.2198 -7.75912 0
    endloop
  endfacet
  facet normal -0 0 -1
    outer loop
      vertex 31.1384 1.95906 0
      vertex 29.3072 1.2 0
      vertex 30.954 3.9104 0
    endloop
  endfacet
  facet normal 0 0 -1
    outer loop
      vertex 29.3072 -1.2 0
      vertex 30.2198 -7.75912 0
      vertex 29.673 -9.64133 0
    endloop
  endfacet
  facet normal -0 0 -1
    outer loop
      vertex 30.954 3.9104 0
      vertex 29.3072 1.2 0
      vertex 30.6474 5.8463 0
    endloop
  endfacet
  facet normal 0 0 -1
    outer loop
      vertex 23.1 11.9511 0
      vertex 30.6474 5.8463 0
      vertex 29.3072 1.2 0
    endloop
  endfacet
  facet normal 0 0 -1
    outer loop
      vertex 29.009 -11.4855 0
      vertex 29.3072 -1.2 0
      vertex 29.673 -9.64133 0
    endloop
  endfacet
  facet normal 0 0 -1
    outer loop
      vertex 28.2306 -13.2843 0
      vertex 29.3072 -1.2 0
      vertex 29.009 -11.4855 0
    endloop
  endfacet
  facet normal 0 0 -1
    outer loop
      vertex 27.3408 -15.0307 0
      vertex 29.3072 -1.2 0
      vertex 28.2306 -13.2843 0
    endloop
  endfacet
  facet normal 0 0 -1
    outer loop
      vertex 26.343 -16.7178 0
      vertex 29.3072 -1.2 0
      vertex 27.3408 -15.0307 0
    endloop
  endfacet
  facet normal 0 0 -1
    outer loop
      vertex 25.2413 -18.3389 0
      vertex 29.3072 -1.2 0
      vertex 26.343 -16.7178 0
    endloop
  endfacet
  facet normal 0 0 -1
    outer loop
      vertex 15 -25.9808 0
      vertex 25.2413 -18.3389 0
      vertex 24.04 -19.8876 0
    endloop
  endfacet
  facet normal 0 0 -1
    outer loop
      vertex 15 -25.9808 0
      vertex 24.04 -19.8876 0
      vertex 22.7438 -21.3579 0
    endloop
  endfacet
  facet normal 0 0 -1
    outer loop
      vertex 15 -25.9808 0
      vertex 22.7438 -21.3579 0
      vertex 21.3579 -22.7438 0
    endloop
  endfacet
  facet normal 0 0 -1
    outer loop
      vertex 15 -25.9808 0
      vertex 21.3579 -22.7438 0
      vertex 19.8876 -24.04 0
    endloop
  endfacet
  facet normal 0 0 -1
    outer loop
      vertex 15 -25.9808 0
      vertex 19.8876 -24.04 0
      vertex 18.3389 -25.2413 0
    endloop
  endfacet
  facet normal 0 0 -1
    outer loop
      vertex 15 -25.9808 0
      vertex 18.3389 -25.2413 0
      vertex 16.7178 -26.343 0
    endloop
  endfacet
  facet normal 0 0 -1
    outer loop
      vertex 15 -25.9808 0
      vertex 16.7178 -26.343 0
      vertex 15.0307 -27.3408 0
    endloop
  endfacet
  facet normal -0 0 -1
    outer loop
      vertex 25.2413 -18.3389 0
      vertex 15 -25.9808 0
      vertex 29.3072 -1.2 0
    endloop
  endfacet
  facet normal 0 0 -1
    outer loop
      vertex 13.2843 -28.2306 0
      vertex 15 -25.9808 0
      vertex 15.0307 -27.3408 0
    endloop
  endfacet
  facet normal 0 0 -1
    outer loop
      vertex 11.4855 -29.009 0
      vertex 15 -25.9808 0
      vertex 13.2843 -28.2306 0
    endloop
  endfacet
  facet normal 0 0 -1
    outer loop
      vertex 9.64133 -29.673 0
      vertex 15 -25.9808 0
      vertex 11.4855 -29.009 0
    endloop
  endfacet
  facet normal 0 0 -1
    outer loop
      vertex 7.75912 -30.2198 0
      vertex 15 -25.9808 0
      vertex 9.64133 -29.673 0
    endloop
  endfacet
  facet normal 0 0 -1
    outer loop
      vertex 5.8463 -30.6474 0
      vertex 15 -25.9808 0
      vertex 7.75912 -30.2198 0
    endloop
  endfacet
  facet normal 0 0 -1
    outer loop
      vertex 3.9104 -30.954 0
      vertex 15 -25.9808 0
      vertex 5.8463 -30.6474 0
    endloop
  endfacet
  facet normal 0 0 -1
    outer loop
      vertex 1.95906 -31.1384 0
      vertex 15 -25.9808 0
      vertex 3.9104 -30.954 0
    endloop
  endfacet
  facet normal 0 0 -1
    outer loop
      vertex 0 -31.2 0
      vertex 15 -25.9808 0
      vertex 1.95906 -31.1384 0
    endloop
  endfacet
  facet normal 0 0 -1
    outer loop
      vertex -15 -25.9808 0
      vertex 0 -31.2 0
      vertex -1.95906 -31.1384 0
    endloop
  endfacet
  facet normal 0 0 -1
    outer loop
      vertex -15 -25.9808 0
      vertex -1.95906 -31.1384 0
      vertex -3.9104 -30.954 0
    endloop
  endfacet
  facet normal 0 0 -1
    outer loop
      vertex -15 -25.9808 0
      vertex -3.9104 -30.954 0
      vertex -5.8463 -30.6474 0
    endloop
  endfacet
  facet normal 0 0 -1
    outer loop
      vertex -15 -25.9808 0
      vertex -5.8463 -30.6474 0
      vertex -7.75912 -30.2198 0
    endloop
  endfacet
  facet normal 0 0 -1
    outer loop
      vertex -15 -25.9808 0
      vertex -7.75912 -30.2198 0
      vertex -9.64133 -29.673 0
    endloop
  endfacet
  facet normal 0 0 -1
    outer loop
      vertex -15 -25.9808 0
      vertex -9.64133 -29.673 0
      vertex -11.4855 -29.009 0
    endloop
  endfacet
  facet normal 0 0 -1
    outer loop
      vertex -15 -25.9808 0
      vertex -11.4855 -29.009 0
      vertex -13.2843 -28.2306 0
    endloop
  endfacet
  facet normal 0 0 -1
    outer loop
      vertex 0 -31.2 0
      vertex -15 -25.9808 0
      vertex 15 -25.9808 0
    endloop
  endfacet
  facet normal 0 0 -1
    outer loop
      vertex -15.0307 -27.3408 0
      vertex -15 -25.9808 0
      vertex -13.2843 -28.2306 0
    endloop
  endfacet
  facet normal 0 0 -1
    outer loop
      vertex -16.7178 -26.343 0
      vertex -15 -25.9808 0
      vertex -15.0307 -27.3408 0
    endloop
  endfacet
  facet normal 0 0 -1
    outer loop
      vertex -18.3389 -25.2413 0
      vertex -15 -25.9808 0
      vertex -16.7178 -26.343 0
    endloop
  endfacet
  facet normal 0 0 -1
    outer loop
      vertex -19.8876 -24.04 0
      vertex -15 -25.9808 0
      vertex -18.3389 -25.2413 0
    endloop
  endfacet
  facet normal 0 0 -1
    outer loop
      vertex -21.3579 -22.7438 0
      vertex -15 -25.9808 0
      vertex -19.8876 -24.04 0
    endloop
  endfacet
  facet normal 0 0 -1
    outer loop
      vertex -22.7438 -21.3579 0
      vertex -15 -25.9808 0
      vertex -21.3579 -22.7438 0
    endloop
  endfacet
  facet normal 0 0 -1
    outer loop
      vertex -24.04 -19.8876 0
      vertex -15 -25.9808 0
      vertex -22.7438 -21.3579 0
    endloop
  endfacet
  facet normal 0 0 -1
    outer loop
      vertex -25.2413 -18.3389 0
      vertex -15 -25.9808 0
      vertex -24.04 -19.8876 0
    endloop
  endfacet
  facet normal 0 0 -1
    outer loop
      vertex -26.343 -16.7178 0
      vertex -15 -25.9808 0
      vertex -25.2413 -18.3389 0
    endloop
  endfacet
  facet normal 0 0 -1
    outer loop
      vertex -27.3408 -15.0307 0
      vertex -15 -25.9808 0
      vertex -26.343 -16.7178 0
    endloop
  endfacet
  facet normal 0 0 -1
    outer loop
      vertex -30 0 0
      vertex -27.3408 -15.0307 0
      vertex -28.2306 -13.2843 0
    endloop
  endfacet
  facet normal 0 0 -1
    outer loop
      vertex -30 0 0
      vertex -28.2306 -13.2843 0
      vertex -29.009 -11.4855 0
    endloop
  endfacet
  facet normal 0 0 -1
    outer loop
      vertex -30 0 0
      vertex -29.009 -11.4855 0
      vertex -29.673 -9.64133 0
    endloop
  endfacet
  facet normal 0 0 -1
    outer loop
      vertex -27.3408 -15.0307 0
      vertex -30 0 0
      vertex -15 -25.9808 0
    endloop
  endfacet
  facet normal 0 -0 -1
    outer loop
      vertex -30 0 0
      vertex -29.673 -9.64133 0
      vertex -30.2198 -7.75912 0
    endloop
  endfacet
  facet normal 0 0 -1
    outer loop
      vertex 30.6474 5.8463 0
      vertex 23.1 11.9511 0
      vertex 30.2198 7.75912 0
    endloop
  endfacet
  facet normal 0 0 -1
    outer loop
      vertex 30.2198 7.75912 0
      vertex 23.1 11.9511 0
      vertex 29.673 9.64133 0
    endloop
  endfacet
  facet normal 0 0 -1
    outer loop
      vertex 29.673 9.64133 0
      vertex 23.1 11.9511 0
      vertex 29.009 11.4855 0
    endloop
  endfacet
  facet normal 0 0 -1
    outer loop
      vertex 29.009 11.4855 0
      vertex 23.1 11.9511 0
      vertex 28.2306 13.2843 0
    endloop
  endfacet
  facet normal -0 0 -1
    outer loop
      vertex 28.2306 13.2843 0
      vertex 23.1 11.9511 0
      vertex 27.3408 15.0307 0
    endloop
  endfacet
  facet normal 0 0 -1
    outer loop
      vertex 21.9 14.0296 0
      vertex 27.3408 15.0307 0
      vertex 23.1 11.9511 0
    endloop
  endfacet
  facet normal -0 0 -1
    outer loop
      vertex 27.3408 15.0307 0
      vertex 21.9 14.0296 0
      vertex 26.343 16.7178 0
    endloop
  endfacet
  facet normal -0 0 -1
    outer loop
      vertex 26.343 16.7178 0
      vertex 21.9 14.0296 0
      vertex 25.2413 18.3389 0
    endloop
  endfacet
  facet normal -0 0 -1
    outer loop
      vertex 25.2413 18.3389 0
      vertex 21.9 14.0296 0
      vertex 24.04 19.8876 0
    endloop
  endfacet
  facet normal -0 0 -1
    outer loop
      vertex 24.04 19.8876 0
      vertex 21.9 14.0296 0
      vertex 22.7438 21.3579 0
    endloop
  endfacet
  facet normal 0 0 -1
    outer loop
      vertex 4.47845 1.2 0
      vertex 21.9 14.0296 0
      vertex 23.1 11.9511 0
    endloop
  endfacet
  facet normal 0 0 -1
    outer loop
      vertex 21.9 14.0296 0
      vertex 4.47845 1.2 0
      vertex 3.27846 3.27846 0
    endloop
  endfacet
  facet normal 0 0 -1
    outer loop
      vertex 21.9 14.0296 0
      vertex 21.3579 22.7438 0
      vertex 22.7438 21.3579 0
    endloop
  endfacet
  facet normal 0 0 -1
    outer loop
      vertex 15.6928 24.7808 0
      vertex 21.3579 22.7438 0
      vertex 21.9 14.0296 0
    endloop
  endfacet
  facet normal 0 0 -1
    outer loop
      vertex 21.3579 22.7438 0
      vertex 15.6928 24.7808 0
      vertex 19.8876 24.04 0
    endloop
  endfacet
  facet normal 0 0 -1
    outer loop
      vertex 19.8876 24.04 0
      vertex 15.6928 24.7808 0
      vertex 18.3389 25.2413 0
    endloop
  endfacet
  facet normal -0 0 -1
    outer loop
      vertex 18.3389 25.2413 0
      vertex 15.6928 24.7808 0
      vertex 16.7178 26.343 0
    endloop
  endfacet
  facet normal 0 0 -1
    outer loop
      vertex 15 25.9808 0
      vertex 16.7178 26.343 0
      vertex 15.6928 24.7808 0
    endloop
  endfacet
  facet normal 0 0 -1
    outer loop
      vertex 13.6144 25.9808 0
      vertex 15 25.9808 0
      vertex 15.6928 24.7808 0
    endloop
  endfacet
  facet normal 0 0 -1
    outer loop
      vertex 3.27846 3.27846 0
      vertex 13.6144 25.9808 0
      vertex 15.6928 24.7808 0
    endloop
  endfacet
  facet normal 0 0 -1
    outer loop
      vertex -1.03923 0.600006 0
      vertex 3.27846 3.27846 0
      vertex 0 -1.2 0
    endloop
  endfacet
  facet normal 0 0 -1
    outer loop
      vertex -1.03923 0.600006 0
      vertex 0 -1.2 0
      vertex -0.132004 -1.19272 0
    endloop
  endfacet
  facet normal 0 0 -1
    outer loop
      vertex -1.03923 0.600006 0
      vertex -0.132004 -1.19272 0
      vertex -0.326523 -1.15472 0
    endloop
  endfacet
  facet normal 0 0 -1
    outer loop
      vertex -1.03923 0.600006 0
      vertex -0.326523 -1.15472 0
      vertex -0.512131 -1.08524 0
    endloop
  endfacet
  facet normal 0 0 -1
    outer loop
      vertex -1.03923 0.600006 0
      vertex -0.512131 -1.08524 0
      vertex -0.683777 -0.98613 0
    endloop
  endfacet
  facet normal 0 0 -1
    outer loop
      vertex -1.03923 0.600006 0
      vertex -0.683777 -0.98613 0
      vertex -0.836761 -0.860138 0
    endloop
  endfacet
  facet normal 0 0 -1
    outer loop
      vertex -1.03923 0.600006 0
      vertex -0.836761 -0.860138 0
      vertex -0.966919 -0.710678 0
    endloop
  endfacet
  facet normal -0 0 -1
    outer loop
      vertex 3.27846 3.27846 0
      vertex -1.03923 0.600006 0
      vertex 13.6144 25.9808 0
    endloop
  endfacet
  facet normal 0 0 -1
    outer loop
      vertex -1.07071 -0.54184 0
      vertex -1.03923 0.600006 0
      vertex -0.966919 -0.710678 0
    endloop
  endfacet
  facet normal 0 0 -1
    outer loop
      vertex -1.07071 -0.54184 0
      vertex -1.12381 0.420761 0
      vertex -1.03923 0.600006 0
    endloop
  endfacet
  facet normal 0 0 -1
    outer loop
      vertex -1.14528 -0.358215 0
      vertex -1.12381 0.420761 0
      vertex -1.07071 -0.54184 0
    endloop
  endfacet
  facet normal 0 0 -1
    outer loop
      vertex -1.14528 -0.358215 0
      vertex -1.17773 0.230057 0
      vertex -1.12381 0.420761 0
    endloop
  endfacet
  facet normal 0 0 -1
    outer loop
      vertex -1.18863 -0.164825 0
      vertex -1.17773 0.230057 0
      vertex -1.14528 -0.358215 0
    endloop
  endfacet
  facet normal 0 0 -1
    outer loop
      vertex -1.17773 0.230057 0
      vertex -1.18863 -0.164825 0
      vertex -1.19954 0.0330658 0
    endloop
  endfacet
  facet normal -0 0 -1
    outer loop
      vertex 16.7178 26.343 0
      vertex 15 25.9808 0
      vertex 15.0307 27.3408 0
    endloop
  endfacet
  facet normal 0 0 -1
    outer loop
      vertex 13.6144 25.9808 0
      vertex 15.0307 27.3408 0
      vertex 15 25.9808 0
    endloop
  endfacet
  facet normal 0 0 -1
    outer loop
      vertex 13.6144 25.9808 0
      vertex 13.2843 28.2306 0
      vertex 15.0307 27.3408 0
    endloop
  endfacet
  facet normal 0 0 -1
    outer loop
      vertex 13.6144 25.9808 0
      vertex 11.4855 29.009 0
      vertex 13.2843 28.2306 0
    endloop
  endfacet
  facet normal 0 0 -1
    outer loop
      vertex 13.6144 25.9808 0
      vertex 9.64133 29.673 0
      vertex 11.4855 29.009 0
    endloop
  endfacet
  facet normal 0 0 -1
    outer loop
      vertex 13.6144 25.9808 0
      vertex 7.75912 30.2198 0
      vertex 9.64133 29.673 0
    endloop
  endfacet
  facet normal 0 0 -1
    outer loop
      vertex 13.6144 25.9808 0
      vertex 5.8463 30.6474 0
      vertex 7.75912 30.2198 0
    endloop
  endfacet
  facet normal 0 0 -1
    outer loop
      vertex 13.6144 25.9808 0
      vertex 3.9104 30.954 0
      vertex 5.8463 30.6474 0
    endloop
  endfacet
  facet normal 0 0 -1
    outer loop
      vertex 13.6144 25.9808 0
      vertex 1.95906 31.1384 0
      vertex 3.9104 30.954 0
    endloop
  endfacet
  facet normal 0 0 -1
    outer loop
      vertex 13.6144 25.9808 0
      vertex 0 31.2 0
      vertex 1.95906 31.1384 0
    endloop
  endfacet
  facet normal 0 0 -1
    outer loop
      vertex 13.6144 25.9808 0
      vertex -1.95906 31.1384 0
      vertex 0 31.2 0
    endloop
  endfacet
  facet normal 0 0 -1
    outer loop
      vertex 13.6144 25.9808 0
      vertex -3.9104 30.954 0
      vertex -1.95906 31.1384 0
    endloop
  endfacet
  facet normal 0 0 -1
    outer loop
      vertex -15 25.9808 0
      vertex -3.9104 30.954 0
      vertex 13.6144 25.9808 0
    endloop
  endfacet
  facet normal 0 0 -1
    outer loop
      vertex -3.9104 30.954 0
      vertex -15 25.9808 0
      vertex -5.8463 30.6474 0
    endloop
  endfacet
  facet normal 0 0 -1
    outer loop
      vertex -5.8463 30.6474 0
      vertex -15 25.9808 0
      vertex -7.75912 30.2198 0
    endloop
  endfacet
  facet normal 0 0 -1
    outer loop
      vertex -7.75912 30.2198 0
      vertex -15 25.9808 0
      vertex -9.64133 29.673 0
    endloop
  endfacet
  facet normal 0 0 -1
    outer loop
      vertex -9.64133 29.673 0
      vertex -15 25.9808 0
      vertex -11.4855 29.009 0
    endloop
  endfacet
  facet normal 0 0 -1
    outer loop
      vertex -11.4855 29.009 0
      vertex -15 25.9808 0
      vertex -13.2843 28.2306 0
    endloop
  endfacet
  facet normal 0 0 -1
    outer loop
      vertex -15 25.9808 0
      vertex -15.0307 27.3408 0
      vertex -13.2843 28.2306 0
    endloop
  endfacet
  facet normal 0 0 -1
    outer loop
      vertex -15 25.9808 0
      vertex -16.7178 26.343 0
      vertex -15.0307 27.3408 0
    endloop
  endfacet
  facet normal -0 0 -1
    outer loop
      vertex -15 25.9808 0
      vertex -18.3389 25.2413 0
      vertex -16.7178 26.343 0
    endloop
  endfacet
  facet normal 0 0 -1
    outer loop
      vertex -15 25.9808 0
      vertex -19.8876 24.04 0
      vertex -18.3389 25.2413 0
    endloop
  endfacet
  facet normal 0 0 -1
    outer loop
      vertex -15 25.9808 0
      vertex -21.3579 22.7438 0
      vertex -19.8876 24.04 0
    endloop
  endfacet
  facet normal 0 0 -1
    outer loop
      vertex -15 25.9808 0
      vertex -22.7438 21.3579 0
      vertex -21.3579 22.7438 0
    endloop
  endfacet
  facet normal 0 0 -1
    outer loop
      vertex -15 25.9808 0
      vertex -24.04 19.8876 0
      vertex -22.7438 21.3579 0
    endloop
  endfacet
  facet normal 0 0 -1
    outer loop
      vertex -15 25.9808 0
      vertex -25.2413 18.3389 0
      vertex -24.04 19.8876 0
    endloop
  endfacet
  facet normal 0 0 -1
    outer loop
      vertex -15 25.9808 0
      vertex -26.343 16.7178 0
      vertex -25.2413 18.3389 0
    endloop
  endfacet
  facet normal 0 0 -1
    outer loop
      vertex -15 25.9808 0
      vertex -27.3408 15.0307 0
      vertex -26.343 16.7178 0
    endloop
  endfacet
  facet normal 0 0 -1
    outer loop
      vertex -30 0 0
      vertex -27.3408 15.0307 0
      vertex -15 25.9808 0
    endloop
  endfacet
  facet normal 0 0 -1
    outer loop
      vertex -27.3408 15.0307 0
      vertex -30 0 0
      vertex -28.2306 13.2843 0
    endloop
  endfacet
  facet normal 0 0 -1
    outer loop
      vertex -28.2306 13.2843 0
      vertex -30 0 0
      vertex -29.009 11.4855 0
    endloop
  endfacet
  facet normal 0 0 -1
    outer loop
      vertex -29.009 11.4855 0
      vertex -30 0 0
      vertex -29.673 9.64133 0
    endloop
  endfacet
  facet normal 0 0 -1
    outer loop
      vertex -30 0 0
      vertex -30.2198 7.75912 0
      vertex -29.673 9.64133 0
    endloop
  endfacet
  facet normal 0 0 -1
    outer loop
      vertex -30.6474 -5.8463 0
      vertex -30 0 0
      vertex -30.2198 -7.75912 0
    endloop
  endfacet
  facet normal 0 0 -1
    outer loop
      vertex -30.954 -3.9104 0
      vertex -30 0 0
      vertex -30.6474 -5.8463 0
    endloop
  endfacet
  facet normal 0 0 -1
    outer loop
      vertex -30 0 0
      vertex -30.6474 5.8463 0
      vertex -30.2198 7.75912 0
    endloop
  endfacet
  facet normal 0 0 -1
    outer loop
      vertex -31.1384 -1.95906 0
      vertex -30 0 0
      vertex -30.954 -3.9104 0
    endloop
  endfacet
  facet normal 0 0 -1
    outer loop
      vertex -30 0 0
      vertex -30.954 3.9104 0
      vertex -30.6474 5.8463 0
    endloop
  endfacet
  facet normal 0 0 -1
    outer loop
      vertex -31.2 0 0
      vertex -30 0 0
      vertex -31.1384 -1.95906 0
    endloop
  endfacet
  facet normal 0 0 -1
    outer loop
      vertex -30 0 0
      vertex -31.1384 1.95906 0
      vertex -30.954 3.9104 0
    endloop
  endfacet
  facet normal 0 0 -1
    outer loop
      vertex -30 0 0
      vertex -31.2 0 0
      vertex -31.1384 1.95906 0
    endloop
  endfacet
  facet normal -0.98769 0.156426 0
    outer loop
      vertex -30.954 3.9104 0
      vertex -30.6474 5.8463 10
      vertex -30.6474 5.8463 0
    endloop
  endfacet
  facet normal -0.98769 0.156426 0
    outer loop
      vertex -30.6474 5.8463 10
      vertex -30.954 3.9104 0
      vertex -30.954 3.9104 10
    endloop
  endfacet
  facet normal 0.750122 -0.661299 0
    outer loop
      vertex 22.7438 -21.3579 10
      vertex 24.04 -19.8876 0
      vertex 24.04 -19.8876 10
    endloop
  endfacet
  facet normal 0.750122 -0.661299 0
    outer loop
      vertex 24.04 -19.8876 0
      vertex 22.7438 -21.3579 10
      vertex 22.7438 -21.3579 0
    endloop
  endfacet
  facet normal 0.82708 -0.562084 0
    outer loop
      vertex 25.2413 -18.3389 10
      vertex 26.343 -16.7178 0
      vertex 26.343 -16.7178 10
    endloop
  endfacet
  facet normal 0.82708 -0.562084 0
    outer loop
      vertex 26.343 -16.7178 0
      vertex 25.2413 -18.3389 10
      vertex 25.2413 -18.3389 0
    endloop
  endfacet
  facet normal -0.156426 -0.98769 0
    outer loop
      vertex -5.8463 -30.6474 0
      vertex -3.9104 -30.954 10
      vertex -5.8463 -30.6474 10
    endloop
  endfacet
  facet normal -0.156426 -0.98769 -0
    outer loop
      vertex -3.9104 -30.954 10
      vertex -5.8463 -30.6474 0
      vertex -3.9104 -30.954 0
    endloop
  endfacet
  facet normal 0.661299 0.750122 -0
    outer loop
      vertex 21.3579 22.7438 0
      vertex 19.8876 24.04 10
      vertex 21.3579 22.7438 10
    endloop
  endfacet
  facet normal 0.661299 0.750122 0
    outer loop
      vertex 19.8876 24.04 10
      vertex 21.3579 22.7438 0
      vertex 19.8876 24.04 0
    endloop
  endfacet
  facet normal 0.453976 0.891014 -0
    outer loop
      vertex 15.0307 27.3408 0
      vertex 13.2843 28.2306 10
      vertex 15.0307 27.3408 10
    endloop
  endfacet
  facet normal 0.453976 0.891014 0
    outer loop
      vertex 13.2843 28.2306 10
      vertex 15.0307 27.3408 0
      vertex 13.2843 28.2306 0
    endloop
  endfacet
  facet normal -0.562084 0.82708 0
    outer loop
      vertex -16.7178 26.343 0
      vertex -18.3389 25.2413 10
      vertex -16.7178 26.343 10
    endloop
  endfacet
  facet normal -0.562084 0.82708 0
    outer loop
      vertex -18.3389 25.2413 10
      vertex -16.7178 26.343 0
      vertex -18.3389 25.2413 0
    endloop
  endfacet
  facet normal 0.999506 -0.0314281 0
    outer loop
      vertex 31.1384 -1.95906 10
      vertex 31.2 0 0
      vertex 31.2 0 10
    endloop
  endfacet
  facet normal 0.999506 -0.0314281 0
    outer loop
      vertex 31.2 0 0
      vertex 31.1384 -1.95906 10
      vertex 31.1384 -1.95906 0
    endloop
  endfacet
  facet normal 0.995565 -0.09408 0
    outer loop
      vertex 30.954 -3.9104 10
      vertex 31.1384 -1.95906 0
      vertex 31.1384 -1.95906 10
    endloop
  endfacet
  facet normal 0.995565 -0.09408 0
    outer loop
      vertex 31.1384 -1.95906 0
      vertex 30.954 -3.9104 10
      vertex 30.954 -3.9104 0
    endloop
  endfacet
  facet normal -0.975913 -0.21816 0
    outer loop
      vertex -30.2198 -7.75912 0
      vertex -30.6474 -5.8463 10
      vertex -30.6474 -5.8463 0
    endloop
  endfacet
  facet normal -0.975913 -0.21816 0
    outer loop
      vertex -30.6474 -5.8463 10
      vertex -30.2198 -7.75912 0
      vertex -30.2198 -7.75912 10
    endloop
  endfacet
  facet normal -0.661299 -0.750122 0
    outer loop
      vertex -21.3579 -22.7438 0
      vertex -19.8876 -24.04 10
      vertex -21.3579 -22.7438 10
    endloop
  endfacet
  facet normal -0.661299 -0.750122 -0
    outer loop
      vertex -19.8876 -24.04 10
      vertex -21.3579 -22.7438 0
      vertex -19.8876 -24.04 0
    endloop
  endfacet
  facet normal 0.86073 0.509061 0
    outer loop
      vertex 27.3408 15.0307 10
      vertex 26.343 16.7178 0
      vertex 26.343 16.7178 10
    endloop
  endfacet
  facet normal 0.86073 0.509061 0
    outer loop
      vertex 26.343 16.7178 0
      vertex 27.3408 15.0307 10
      vertex 27.3408 15.0307 0
    endloop
  endfacet
  facet normal -0.995565 -0.09408 0
    outer loop
      vertex -30.954 -3.9104 0
      vertex -31.1384 -1.95906 10
      vertex -31.1384 -1.95906 0
    endloop
  endfacet
  facet normal -0.995565 -0.09408 0
    outer loop
      vertex -31.1384 -1.95906 10
      vertex -30.954 -3.9104 0
      vertex -30.954 -3.9104 10
    endloop
  endfacet
  facet normal -0.98769 -0.156426 0
    outer loop
      vertex -30.6474 -5.8463 0
      vertex -30.954 -3.9104 10
      vertex -30.954 -3.9104 0
    endloop
  endfacet
  facet normal -0.98769 -0.156426 0
    outer loop
      vertex -30.954 -3.9104 10
      vertex -30.6474 -5.8463 0
      vertex -30.6474 -5.8463 10
    endloop
  endfacet
  facet normal 0.891014 0.453976 0
    outer loop
      vertex 28.2306 13.2843 10
      vertex 27.3408 15.0307 0
      vertex 27.3408 15.0307 10
    endloop
  endfacet
  facet normal 0.891014 0.453976 0
    outer loop
      vertex 27.3408 15.0307 0
      vertex 28.2306 13.2843 10
      vertex 28.2306 13.2843 0
    endloop
  endfacet
  facet normal -0.86073 -0.509061 0
    outer loop
      vertex -26.343 -16.7178 0
      vertex -27.3408 -15.0307 10
      vertex -27.3408 -15.0307 0
    endloop
  endfacet
  facet normal -0.86073 -0.509061 0
    outer loop
      vertex -27.3408 -15.0307 10
      vertex -26.343 -16.7178 0
      vertex -26.343 -16.7178 10
    endloop
  endfacet
  facet normal 0.940871 -0.338764 0
    outer loop
      vertex 29.009 -11.4855 10
      vertex 29.673 -9.64133 0
      vertex 29.673 -9.64133 10
    endloop
  endfacet
  facet normal 0.940871 -0.338764 0
    outer loop
      vertex 29.673 -9.64133 0
      vertex 29.009 -11.4855 10
      vertex 29.009 -11.4855 0
    endloop
  endfacet
  facet normal 0.338764 -0.940871 0
    outer loop
      vertex 9.64133 -29.673 0
      vertex 11.4855 -29.009 10
      vertex 9.64133 -29.673 10
    endloop
  endfacet
  facet normal 0.338764 -0.940871 0
    outer loop
      vertex 11.4855 -29.009 10
      vertex 9.64133 -29.673 0
      vertex 11.4855 -29.009 0
    endloop
  endfacet
  facet normal -0.995565 0.09408 0
    outer loop
      vertex -31.1384 1.95906 0
      vertex -30.954 3.9104 10
      vertex -30.954 3.9104 0
    endloop
  endfacet
  facet normal -0.995565 0.09408 0
    outer loop
      vertex -30.954 3.9104 10
      vertex -31.1384 1.95906 0
      vertex -31.1384 1.95906 10
    endloop
  endfacet
  facet normal -0.917757 0.397143 0
    outer loop
      vertex -29.009 11.4855 0
      vertex -28.2306 13.2843 10
      vertex -28.2306 13.2843 0
    endloop
  endfacet
  facet normal -0.917757 0.397143 0
    outer loop
      vertex -28.2306 13.2843 10
      vertex -29.009 11.4855 0
      vertex -29.009 11.4855 10
    endloop
  endfacet
  facet normal -0.940871 0.338764 0
    outer loop
      vertex -29.673 9.64133 0
      vertex -29.009 11.4855 10
      vertex -29.009 11.4855 0
    endloop
  endfacet
  facet normal -0.940871 0.338764 0
    outer loop
      vertex -29.009 11.4855 10
      vertex -29.673 9.64133 0
      vertex -29.673 9.64133 10
    endloop
  endfacet
  facet normal -0.891014 -0.453976 0
    outer loop
      vertex -27.3408 -15.0307 0
      vertex -28.2306 -13.2843 10
      vertex -28.2306 -13.2843 0
    endloop
  endfacet
  facet normal -0.891014 -0.453976 0
    outer loop
      vertex -28.2306 -13.2843 10
      vertex -27.3408 -15.0307 0
      vertex -27.3408 -15.0307 10
    endloop
  endfacet
  facet normal -0.82708 0.562084 0
    outer loop
      vertex -26.343 16.7178 0
      vertex -25.2413 18.3389 10
      vertex -25.2413 18.3389 0
    endloop
  endfacet
  facet normal -0.82708 0.562084 0
    outer loop
      vertex -25.2413 18.3389 10
      vertex -26.343 16.7178 0
      vertex -26.343 16.7178 10
    endloop
  endfacet
  facet normal 0.86073 -0.509061 0
    outer loop
      vertex 26.343 -16.7178 10
      vertex 27.3408 -15.0307 0
      vertex 27.3408 -15.0307 10
    endloop
  endfacet
  facet normal 0.86073 -0.509061 0
    outer loop
      vertex 27.3408 -15.0307 0
      vertex 26.343 -16.7178 10
      vertex 26.343 -16.7178 0
    endloop
  endfacet
  facet normal -0.82708 -0.562084 0
    outer loop
      vertex -25.2413 -18.3389 0
      vertex -26.343 -16.7178 10
      vertex -26.343 -16.7178 0
    endloop
  endfacet
  facet normal -0.82708 -0.562084 0
    outer loop
      vertex -26.343 -16.7178 10
      vertex -25.2413 -18.3389 0
      vertex -25.2413 -18.3389 10
    endloop
  endfacet
  facet normal 0.917757 -0.397143 0
    outer loop
      vertex 28.2306 -13.2843 10
      vertex 29.009 -11.4855 0
      vertex 29.009 -11.4855 10
    endloop
  endfacet
  facet normal 0.917757 -0.397143 0
    outer loop
      vertex 29.009 -11.4855 0
      vertex 28.2306 -13.2843 10
      vertex 28.2306 -13.2843 0
    endloop
  endfacet
  facet normal 0.453976 -0.891014 0
    outer loop
      vertex 13.2843 -28.2306 0
      vertex 15.0307 -27.3408 10
      vertex 13.2843 -28.2306 10
    endloop
  endfacet
  facet normal 0.453976 -0.891014 0
    outer loop
      vertex 15.0307 -27.3408 10
      vertex 13.2843 -28.2306 0
      vertex 15.0307 -27.3408 0
    endloop
  endfacet
  facet normal 0.09408 -0.995565 0
    outer loop
      vertex 1.95906 -31.1384 0
      vertex 3.9104 -30.954 10
      vertex 1.95906 -31.1384 10
    endloop
  endfacet
  facet normal 0.09408 -0.995565 0
    outer loop
      vertex 3.9104 -30.954 10
      vertex 1.95906 -31.1384 0
      vertex 3.9104 -30.954 0
    endloop
  endfacet
  facet normal 0.790154 -0.612909 0
    outer loop
      vertex 24.04 -19.8876 10
      vertex 25.2413 -18.3389 0
      vertex 25.2413 -18.3389 10
    endloop
  endfacet
  facet normal 0.790154 -0.612909 0
    outer loop
      vertex 25.2413 -18.3389 0
      vertex 24.04 -19.8876 10
      vertex 24.04 -19.8876 0
    endloop
  endfacet
  facet normal -0.397143 -0.917757 0
    outer loop
      vertex -13.2843 -28.2306 0
      vertex -11.4855 -29.009 10
      vertex -13.2843 -28.2306 10
    endloop
  endfacet
  facet normal -0.397143 -0.917757 -0
    outer loop
      vertex -11.4855 -29.009 10
      vertex -13.2843 -28.2306 0
      vertex -11.4855 -29.009 0
    endloop
  endfacet
  facet normal 0.917757 0.397143 0
    outer loop
      vertex 29.009 11.4855 10
      vertex 28.2306 13.2843 0
      vertex 28.2306 13.2843 10
    endloop
  endfacet
  facet normal 0.917757 0.397143 0
    outer loop
      vertex 28.2306 13.2843 0
      vertex 29.009 11.4855 10
      vertex 29.009 11.4855 0
    endloop
  endfacet
  facet normal 0.509061 -0.86073 0
    outer loop
      vertex 15.0307 -27.3408 0
      vertex 16.7178 -26.343 10
      vertex 15.0307 -27.3408 10
    endloop
  endfacet
  facet normal 0.509061 -0.86073 0
    outer loop
      vertex 16.7178 -26.343 10
      vertex 15.0307 -27.3408 0
      vertex 16.7178 -26.343 0
    endloop
  endfacet
  facet normal -0.750122 0.661299 0
    outer loop
      vertex -24.04 19.8876 0
      vertex -22.7438 21.3579 10
      vertex -22.7438 21.3579 0
    endloop
  endfacet
  facet normal -0.750122 0.661299 0
    outer loop
      vertex -22.7438 21.3579 10
      vertex -24.04 19.8876 0
      vertex -24.04 19.8876 10
    endloop
  endfacet
  facet normal 0.156426 0.98769 -0
    outer loop
      vertex 5.8463 30.6474 0
      vertex 3.9104 30.954 10
      vertex 5.8463 30.6474 10
    endloop
  endfacet
  facet normal 0.156426 0.98769 0
    outer loop
      vertex 3.9104 30.954 10
      vertex 5.8463 30.6474 0
      vertex 3.9104 30.954 0
    endloop
  endfacet
  facet normal 0.09408 0.995565 -0
    outer loop
      vertex 3.9104 30.954 0
      vertex 1.95906 31.1384 10
      vertex 3.9104 30.954 10
    endloop
  endfacet
  facet normal 0.09408 0.995565 0
    outer loop
      vertex 1.95906 31.1384 10
      vertex 3.9104 30.954 0
      vertex 1.95906 31.1384 0
    endloop
  endfacet
  facet normal 0.612909 0.790154 -0
    outer loop
      vertex 19.8876 24.04 0
      vertex 18.3389 25.2413 10
      vertex 19.8876 24.04 10
    endloop
  endfacet
  facet normal 0.612909 0.790154 0
    outer loop
      vertex 18.3389 25.2413 10
      vertex 19.8876 24.04 0
      vertex 18.3389 25.2413 0
    endloop
  endfacet
  facet normal 0.82708 0.562084 0
    outer loop
      vertex 26.343 16.7178 10
      vertex 25.2413 18.3389 0
      vertex 25.2413 18.3389 10
    endloop
  endfacet
  facet normal 0.82708 0.562084 0
    outer loop
      vertex 25.2413 18.3389 0
      vertex 26.343 16.7178 10
      vertex 26.343 16.7178 0
    endloop
  endfacet
  facet normal -0.278976 0.960298 0
    outer loop
      vertex -7.75912 30.2198 0
      vertex -9.64133 29.673 10
      vertex -7.75912 30.2198 10
    endloop
  endfacet
  facet normal -0.278976 0.960298 0
    outer loop
      vertex -9.64133 29.673 10
      vertex -7.75912 30.2198 0
      vertex -9.64133 29.673 0
    endloop
  endfacet
  facet normal 0.661299 -0.750122 0
    outer loop
      vertex 19.8876 -24.04 0
      vertex 21.3579 -22.7438 10
      vertex 19.8876 -24.04 10
    endloop
  endfacet
  facet normal 0.661299 -0.750122 0
    outer loop
      vertex 21.3579 -22.7438 10
      vertex 19.8876 -24.04 0
      vertex 21.3579 -22.7438 0
    endloop
  endfacet
  facet normal 0 0 1
    outer loop
      vertex 30 0 10
      vertex 31.2 0 10
      vertex 31.1384 1.95906 10
    endloop
  endfacet
  facet normal 0 0 1
    outer loop
      vertex 30 0 10
      vertex 31.1384 1.95906 10
      vertex 30.954 3.9104 10
    endloop
  endfacet
  facet normal 0 0 1
    outer loop
      vertex 31.2 0 10
      vertex 30 0 10
      vertex 31.1384 -1.95906 10
    endloop
  endfacet
  facet normal 0 0 1
    outer loop
      vertex 30 0 10
      vertex 30.954 3.9104 10
      vertex 30.6474 5.8463 10
    endloop
  endfacet
  facet normal 0 0 1
    outer loop
      vertex 31.1384 -1.95906 10
      vertex 30 0 10
      vertex 30.954 -3.9104 10
    endloop
  endfacet
  facet normal 0 0 1
    outer loop
      vertex 30 0 10
      vertex 30.6474 5.8463 10
      vertex 30.2198 7.75912 10
    endloop
  endfacet
  facet normal 0 0 1
    outer loop
      vertex 30.954 -3.9104 10
      vertex 30 0 10
      vertex 30.6474 -5.8463 10
    endloop
  endfacet
  facet normal 0 0 1
    outer loop
      vertex 30.6474 -5.8463 10
      vertex 30 0 10
      vertex 30.2198 -7.75912 10
    endloop
  endfacet
  facet normal 0 0 1
    outer loop
      vertex 29.673 9.64133 10
      vertex 30 0 10
      vertex 30.2198 7.75912 10
    endloop
  endfacet
  facet normal 0 0 1
    outer loop
      vertex 29.009 11.4855 10
      vertex 30 0 10
      vertex 29.673 9.64133 10
    endloop
  endfacet
  facet normal 0 0 1
    outer loop
      vertex 28.2306 13.2843 10
      vertex 30 0 10
      vertex 29.009 11.4855 10
    endloop
  endfacet
  facet normal 0 0 1
    outer loop
      vertex 27.3408 15.0307 10
      vertex 30 0 10
      vertex 28.2306 13.2843 10
    endloop
  endfacet
  facet normal 0 0 1
    outer loop
      vertex 26.343 16.7178 10
      vertex 30 0 10
      vertex 27.3408 15.0307 10
    endloop
  endfacet
  facet normal 0 0 1
    outer loop
      vertex 15 25.9808 10
      vertex 26.343 16.7178 10
      vertex 25.2413 18.3389 10
    endloop
  endfacet
  facet normal 0 0 1
    outer loop
      vertex 15 25.9808 10
      vertex 25.2413 18.3389 10
      vertex 24.04 19.8876 10
    endloop
  endfacet
  facet normal 0 0 1
    outer loop
      vertex 15 25.9808 10
      vertex 24.04 19.8876 10
      vertex 22.7438 21.3579 10
    endloop
  endfacet
  facet normal 0 0 1
    outer loop
      vertex 15 25.9808 10
      vertex 22.7438 21.3579 10
      vertex 21.3579 22.7438 10
    endloop
  endfacet
  facet normal 0 0 1
    outer loop
      vertex 15 25.9808 10
      vertex 21.3579 22.7438 10
      vertex 19.8876 24.04 10
    endloop
  endfacet
  facet normal 0 0 1
    outer loop
      vertex 15 25.9808 10
      vertex 19.8876 24.04 10
      vertex 18.3389 25.2413 10
    endloop
  endfacet
  facet normal -0 0 1
    outer loop
      vertex 15 25.9808 10
      vertex 18.3389 25.2413 10
      vertex 16.7178 26.343 10
    endloop
  endfacet
  facet normal 0 0 1
    outer loop
      vertex 15 25.9808 10
      vertex 16.7178 26.343 10
      vertex 15.0307 27.3408 10
    endloop
  endfacet
  facet normal 0 0 1
    outer loop
      vertex 26.343 16.7178 10
      vertex 15 25.9808 10
      vertex 30 0 10
    endloop
  endfacet
  facet normal 0 0 1
    outer loop
      vertex 13.2843 28.2306 10
      vertex 15 25.9808 10
      vertex 15.0307 27.3408 10
    endloop
  endfacet
  facet normal 0 0 1
    outer loop
      vertex 11.4855 29.009 10
      vertex 15 25.9808 10
      vertex 13.2843 28.2306 10
    endloop
  endfacet
  facet normal 0 0 1
    outer loop
      vertex 9.64133 29.673 10
      vertex 15 25.9808 10
      vertex 11.4855 29.009 10
    endloop
  endfacet
  facet normal 0 0 1
    outer loop
      vertex 7.75912 30.2198 10
      vertex 15 25.9808 10
      vertex 9.64133 29.673 10
    endloop
  endfacet
  facet normal 0 0 1
    outer loop
      vertex 5.8463 30.6474 10
      vertex 15 25.9808 10
      vertex 7.75912 30.2198 10
    endloop
  endfacet
  facet normal 0 0 1
    outer loop
      vertex 3.9104 30.954 10
      vertex 15 25.9808 10
      vertex 5.8463 30.6474 10
    endloop
  endfacet
  facet normal 0 0 1
    outer loop
      vertex 1.95906 31.1384 10
      vertex 15 25.9808 10
      vertex 3.9104 30.954 10
    endloop
  endfacet
  facet normal 0 0 1
    outer loop
      vertex 0 31.2 10
      vertex 15 25.9808 10
      vertex 1.95906 31.1384 10
    endloop
  endfacet
  facet normal 0 0 1
    outer loop
      vertex -15 25.9808 10
      vertex 0 31.2 10
      vertex -1.95906 31.1384 10
    endloop
  endfacet
  facet normal 0 0 1
    outer loop
      vertex -15 25.9808 10
      vertex -1.95906 31.1384 10
      vertex -3.9104 30.954 10
    endloop
  endfacet
  facet normal 0 0 1
    outer loop
      vertex -15 25.9808 10
      vertex -3.9104 30.954 10
      vertex -5.8463 30.6474 10
    endloop
  endfacet
  facet normal 0 0 1
    outer loop
      vertex -15 25.9808 10
      vertex -5.8463 30.6474 10
      vertex -7.75912 30.2198 10
    endloop
  endfacet
  facet normal 0 0 1
    outer loop
      vertex -15 25.9808 10
      vertex -7.75912 30.2198 10
      vertex -9.64133 29.673 10
    endloop
  endfacet
  facet normal 0 0 1
    outer loop
      vertex -15 25.9808 10
      vertex -9.64133 29.673 10
      vertex -11.4855 29.009 10
    endloop
  endfacet
  facet normal 0 0 1
    outer loop
      vertex -15 25.9808 10
      vertex -11.4855 29.009 10
      vertex -13.2843 28.2306 10
    endloop
  endfacet
  facet normal 0 0 1
    outer loop
      vertex 0 31.2 10
      vertex -15 25.9808 10
      vertex 15 25.9808 10
    endloop
  endfacet
  facet normal -0 0 1
    outer loop
      vertex -15.0307 27.3408 10
      vertex -15 25.9808 10
      vertex -13.2843 28.2306 10
    endloop
  endfacet
  facet normal -0 0 1
    outer loop
      vertex -16.7178 26.343 10
      vertex -15 25.9808 10
      vertex -15.0307 27.3408 10
    endloop
  endfacet
  facet normal 0 0 1
    outer loop
      vertex -18.3389 25.2413 10
      vertex -15 25.9808 10
      vertex -16.7178 26.343 10
    endloop
  endfacet
  facet normal 0 0 1
    outer loop
      vertex -19.8876 24.04 10
      vertex -15 25.9808 10
      vertex -18.3389 25.2413 10
    endloop
  endfacet
  facet normal 0 0 1
    outer loop
      vertex -21.3579 22.7438 10
      vertex -15 25.9808 10
      vertex -19.8876 24.04 10
    endloop
  endfacet
  facet normal 0 0 1
    outer loop
      vertex -22.7438 21.3579 10
      vertex -15 25.9808 10
      vertex -21.3579 22.7438 10
    endloop
  endfacet
  facet normal 0 0 1
    outer loop
      vertex -24.04 19.8876 10
      vertex -15 25.9808 10
      vertex -22.7438 21.3579 10
    endloop
  endfacet
  facet normal 0 0 1
    outer loop
      vertex -25.2413 18.3389 10
      vertex -15 25.9808 10
      vertex -24.04 19.8876 10
    endloop
  endfacet
  facet normal 0 0 1
    outer loop
      vertex -26.343 16.7178 10
      vertex -15 25.9808 10
      vertex -25.2413 18.3389 10
    endloop
  endfacet
  facet normal 0 0 1
    outer loop
      vertex -27.3408 15.0307 10
      vertex -15 25.9808 10
      vertex -26.343 16.7178 10
    endloop
  endfacet
  facet normal 0 0 1
    outer loop
      vertex -30 0 10
      vertex -27.3408 15.0307 10
      vertex -28.2306 13.2843 10
    endloop
  endfacet
  facet normal 0 0 1
    outer loop
      vertex -30 0 10
      vertex -28.2306 13.2843 10
      vertex -29.009 11.4855 10
    endloop
  endfacet
  facet normal 0 0 1
    outer loop
      vertex -30 0 10
      vertex -29.009 11.4855 10
      vertex -29.673 9.64133 10
    endloop
  endfacet
  facet normal -0 0 1
    outer loop
      vertex -27.3408 15.0307 10
      vertex -30 0 10
      vertex -15 25.9808 10
    endloop
  endfacet
  facet normal 0 -0 1
    outer loop
      vertex -30 0 10
      vertex -29.673 9.64133 10
      vertex -30.2198 7.75912 10
    endloop
  endfacet
  facet normal 0 0 1
    outer loop
      vertex 30 0 10
      vertex 29.673 -9.64133 10
      vertex 30.2198 -7.75912 10
    endloop
  endfacet
  facet normal 0 0 1
    outer loop
      vertex 30 0 10
      vertex 29.009 -11.4855 10
      vertex 29.673 -9.64133 10
    endloop
  endfacet
  facet normal 0 0 1
    outer loop
      vertex 30 0 10
      vertex 28.2306 -13.2843 10
      vertex 29.009 -11.4855 10
    endloop
  endfacet
  facet normal 0 0 1
    outer loop
      vertex 30 0 10
      vertex 27.3408 -15.0307 10
      vertex 28.2306 -13.2843 10
    endloop
  endfacet
  facet normal 0 0 1
    outer loop
      vertex 30 0 10
      vertex 26.343 -16.7178 10
      vertex 27.3408 -15.0307 10
    endloop
  endfacet
  facet normal 0 0 1
    outer loop
      vertex 15 -25.9808 10
      vertex 26.343 -16.7178 10
      vertex 30 0 10
    endloop
  endfacet
  facet normal 0 0 1
    outer loop
      vertex 26.343 -16.7178 10
      vertex 15 -25.9808 10
      vertex 25.2413 -18.3389 10
    endloop
  endfacet
  facet normal 0 0 1
    outer loop
      vertex 25.2413 -18.3389 10
      vertex 15 -25.9808 10
      vertex 24.04 -19.8876 10
    endloop
  endfacet
  facet normal 0 0 1
    outer loop
      vertex 24.04 -19.8876 10
      vertex 15 -25.9808 10
      vertex 22.7438 -21.3579 10
    endloop
  endfacet
  facet normal 0 0 1
    outer loop
      vertex 22.7438 -21.3579 10
      vertex 15 -25.9808 10
      vertex 21.3579 -22.7438 10
    endloop
  endfacet
  facet normal 0 0 1
    outer loop
      vertex 21.3579 -22.7438 10
      vertex 15 -25.9808 10
      vertex 19.8876 -24.04 10
    endloop
  endfacet
  facet normal 0 0 1
    outer loop
      vertex 19.8876 -24.04 10
      vertex 15 -25.9808 10
      vertex 18.3389 -25.2413 10
    endloop
  endfacet
  facet normal 0 0 1
    outer loop
      vertex 18.3389 -25.2413 10
      vertex 15 -25.9808 10
      vertex 16.7178 -26.343 10
    endloop
  endfacet
  facet normal 0 0 1
    outer loop
      vertex 16.7178 -26.343 10
      vertex 15 -25.9808 10
      vertex 15.0307 -27.3408 10
    endloop
  endfacet
  facet normal 0 0 1
    outer loop
      vertex 15 -25.9808 10
      vertex 13.2843 -28.2306 10
      vertex 15.0307 -27.3408 10
    endloop
  endfacet
  facet normal 0 0 1
    outer loop
      vertex 15 -25.9808 10
      vertex 11.4855 -29.009 10
      vertex 13.2843 -28.2306 10
    endloop
  endfacet
  facet normal 0 0 1
    outer loop
      vertex 15 -25.9808 10
      vertex 9.64133 -29.673 10
      vertex 11.4855 -29.009 10
    endloop
  endfacet
  facet normal 0 0 1
    outer loop
      vertex 15 -25.9808 10
      vertex 7.75912 -30.2198 10
      vertex 9.64133 -29.673 10
    endloop
  endfacet
  facet normal 0 0 1
    outer loop
      vertex 15 -25.9808 10
      vertex 5.8463 -30.6474 10
      vertex 7.75912 -30.2198 10
    endloop
  endfacet
  facet normal 0 0 1
    outer loop
      vertex 15 -25.9808 10
      vertex 3.9104 -30.954 10
      vertex 5.8463 -30.6474 10
    endloop
  endfacet
  facet normal 0 0 1
    outer loop
      vertex 15 -25.9808 10
      vertex 1.95906 -31.1384 10
      vertex 3.9104 -30.954 10
    endloop
  endfacet
  facet normal 0 0 1
    outer loop
      vertex 15 -25.9808 10
      vertex 0 -31.2 10
      vertex 1.95906 -31.1384 10
    endloop
  endfacet
  facet normal -0 0 1
    outer loop
      vertex -15 -25.9808 10
      vertex 0 -31.2 10
      vertex 15 -25.9808 10
    endloop
  endfacet
  facet normal 0 0 1
    outer loop
      vertex 0 -31.2 10
      vertex -15 -25.9808 10
      vertex -1.95906 -31.1384 10
    endloop
  endfacet
  facet normal 0 0 1
    outer loop
      vertex -1.95906 -31.1384 10
      vertex -15 -25.9808 10
      vertex -3.9104 -30.954 10
    endloop
  endfacet
  facet normal 0 0 1
    outer loop
      vertex -3.9104 -30.954 10
      vertex -15 -25.9808 10
      vertex -5.8463 -30.6474 10
    endloop
  endfacet
  facet normal 0 0 1
    outer loop
      vertex -5.8463 -30.6474 10
      vertex -15 -25.9808 10
      vertex -7.75912 -30.2198 10
    endloop
  endfacet
  facet normal 0 0 1
    outer loop
      vertex -7.75912 -30.2198 10
      vertex -15 -25.9808 10
      vertex -9.64133 -29.673 10
    endloop
  endfacet
  facet normal 0 0 1
    outer loop
      vertex -9.64133 -29.673 10
      vertex -15 -25.9808 10
      vertex -11.4855 -29.009 10
    endloop
  endfacet
  facet normal 0 0 1
    outer loop
      vertex -11.4855 -29.009 10
      vertex -15 -25.9808 10
      vertex -13.2843 -28.2306 10
    endloop
  endfacet
  facet normal 0 0 1
    outer loop
      vertex -15 -25.9808 10
      vertex -15.0307 -27.3408 10
      vertex -13.2843 -28.2306 10
    endloop
  endfacet
  facet normal 0 0 1
    outer loop
      vertex -15 -25.9808 10
      vertex -16.7178 -26.343 10
      vertex -15.0307 -27.3408 10
    endloop
  endfacet
  facet normal 0 0 1
    outer loop
      vertex -15 -25.9808 10
      vertex -18.3389 -25.2413 10
      vertex -16.7178 -26.343 10
    endloop
  endfacet
  facet normal 0 0 1
    outer loop
      vertex -15 -25.9808 10
      vertex -19.8876 -24.04 10
      vertex -18.3389 -25.2413 10
    endloop
  endfacet
  facet normal 0 0 1
    outer loop
      vertex -15 -25.9808 10
      vertex -21.3579 -22.7438 10
      vertex -19.8876 -24.04 10
    endloop
  endfacet
  facet normal 0 0 1
    outer loop
      vertex -15 -25.9808 10
      vertex -22.7438 -21.3579 10
      vertex -21.3579 -22.7438 10
    endloop
  endfacet
  facet normal 0 0 1
    outer loop
      vertex -15 -25.9808 10
      vertex -24.04 -19.8876 10
      vertex -22.7438 -21.3579 10
    endloop
  endfacet
  facet normal 0 0 1
    outer loop
      vertex -15 -25.9808 10
      vertex -25.2413 -18.3389 10
      vertex -24.04 -19.8876 10
    endloop
  endfacet
  facet normal 0 0 1
    outer loop
      vertex -15 -25.9808 10
      vertex -26.343 -16.7178 10
      vertex -25.2413 -18.3389 10
    endloop
  endfacet
  facet normal 0 0 1
    outer loop
      vertex -15 -25.9808 10
      vertex -27.3408 -15.0307 10
      vertex -26.343 -16.7178 10
    endloop
  endfacet
  facet normal 0 0 1
    outer loop
      vertex -30 0 10
      vertex -27.3408 -15.0307 10
      vertex -15 -25.9808 10
    endloop
  endfacet
  facet normal 0 0 1
    outer loop
      vertex -27.3408 -15.0307 10
      vertex -30 0 10
      vertex -28.2306 -13.2843 10
    endloop
  endfacet
  facet normal 0 0 1
    outer loop
      vertex -28.2306 -13.2843 10
      vertex -30 0 10
      vertex -29.009 -11.4855 10
    endloop
  endfacet
  facet normal 0 0 1
    outer loop
      vertex -29.009 -11.4855 10
      vertex -30 0 10
      vertex -29.673 -9.64133 10
    endloop
  endfacet
  facet normal 0 0 1
    outer loop
      vertex -30 0 10
      vertex -30.2198 -7.75912 10
      vertex -29.673 -9.64133 10
    endloop
  endfacet
  facet normal -0 0 1
    outer loop
      vertex -30.6474 5.8463 10
      vertex -30 0 10
      vertex -30.2198 7.75912 10
    endloop
  endfacet
  facet normal -0 0 1
    outer loop
      vertex -30.954 3.9104 10
      vertex -30 0 10
      vertex -30.6474 5.8463 10
    endloop
  endfacet
  facet normal 0 0 1
    outer loop
      vertex -30 0 10
      vertex -30.6474 -5.8463 10
      vertex -30.2198 -7.75912 10
    endloop
  endfacet
  facet normal -0 0 1
    outer loop
      vertex -31.1384 1.95906 10
      vertex -30 0 10
      vertex -30.954 3.9104 10
    endloop
  endfacet
  facet normal 0 0 1
    outer loop
      vertex -30 0 10
      vertex -30.954 -3.9104 10
      vertex -30.6474 -5.8463 10
    endloop
  endfacet
  facet normal 0 0 1
    outer loop
      vertex -31.2 0 10
      vertex -30 0 10
      vertex -31.1384 1.95906 10
    endloop
  endfacet
  facet normal 0 0 1
    outer loop
      vertex -30 0 10
      vertex -31.1384 -1.95906 10
      vertex -30.954 -3.9104 10
    endloop
  endfacet
  facet normal 0 0 1
    outer loop
      vertex -30 0 10
      vertex -31.2 0 10
      vertex -31.1384 -1.95906 10
    endloop
  endfacet
  facet normal -0.21816 -0.975913 0
    outer loop
      vertex -7.75912 -30.2198 0
      vertex -5.8463 -30.6474 10
      vertex -7.75912 -30.2198 10
    endloop
  endfacet
  facet normal -0.21816 -0.975913 -0
    outer loop
      vertex -5.8463 -30.6474 10
      vertex -7.75912 -30.2198 0
      vertex -5.8463 -30.6474 0
    endloop
  endfacet
  facet normal 0.338764 0.940871 -0
    outer loop
      vertex 11.4855 29.009 0
      vertex 9.64133 29.673 10
      vertex 11.4855 29.009 10
    endloop
  endfacet
  facet normal 0.338764 0.940871 0
    outer loop
      vertex 9.64133 29.673 10
      vertex 11.4855 29.009 0
      vertex 9.64133 29.673 0
    endloop
  endfacet
  facet normal -0.661299 0.750122 0
    outer loop
      vertex -19.8876 24.04 0
      vertex -21.3579 22.7438 10
      vertex -19.8876 24.04 10
    endloop
  endfacet
  facet normal -0.661299 0.750122 0
    outer loop
      vertex -21.3579 22.7438 10
      vertex -19.8876 24.04 0
      vertex -21.3579 22.7438 0
    endloop
  endfacet
  facet normal -0.0314281 0.999506 0
    outer loop
      vertex 0 31.2 0
      vertex -1.95906 31.1384 10
      vertex 0 31.2 10
    endloop
  endfacet
  facet normal -0.0314281 0.999506 0
    outer loop
      vertex -1.95906 31.1384 10
      vertex 0 31.2 0
      vertex -1.95906 31.1384 0
    endloop
  endfacet
  facet normal 0.397143 -0.917757 0
    outer loop
      vertex 11.4855 -29.009 0
      vertex 13.2843 -28.2306 10
      vertex 11.4855 -29.009 10
    endloop
  endfacet
  facet normal 0.397143 -0.917757 0
    outer loop
      vertex 13.2843 -28.2306 10
      vertex 11.4855 -29.009 0
      vertex 13.2843 -28.2306 0
    endloop
  endfacet
  facet normal 0.707107 -0.707107 0
    outer loop
      vertex 21.3579 -22.7438 10
      vertex 22.7438 -21.3579 0
      vertex 22.7438 -21.3579 10
    endloop
  endfacet
  facet normal 0.707107 -0.707107 0
    outer loop
      vertex 22.7438 -21.3579 0
      vertex 21.3579 -22.7438 10
      vertex 21.3579 -22.7438 0
    endloop
  endfacet
  facet normal -0.509061 -0.86073 0
    outer loop
      vertex -16.7178 -26.343 0
      vertex -15.0307 -27.3408 10
      vertex -16.7178 -26.343 10
    endloop
  endfacet
  facet normal -0.509061 -0.86073 -0
    outer loop
      vertex -15.0307 -27.3408 10
      vertex -16.7178 -26.343 0
      vertex -15.0307 -27.3408 0
    endloop
  endfacet
  facet normal -0.86073 0.509061 0
    outer loop
      vertex -27.3408 15.0307 0
      vertex -26.343 16.7178 10
      vertex -26.343 16.7178 0
    endloop
  endfacet
  facet normal -0.86073 0.509061 0
    outer loop
      vertex -26.343 16.7178 10
      vertex -27.3408 15.0307 0
      vertex -27.3408 15.0307 10
    endloop
  endfacet
  facet normal -0.750122 -0.661299 0
    outer loop
      vertex -22.7438 -21.3579 0
      vertex -24.04 -19.8876 10
      vertex -24.04 -19.8876 0
    endloop
  endfacet
  facet normal -0.750122 -0.661299 0
    outer loop
      vertex -24.04 -19.8876 10
      vertex -22.7438 -21.3579 0
      vertex -22.7438 -21.3579 10
    endloop
  endfacet
  facet normal -0.21816 0.975913 0
    outer loop
      vertex -5.8463 30.6474 0
      vertex -7.75912 30.2198 10
      vertex -5.8463 30.6474 10
    endloop
  endfacet
  facet normal -0.21816 0.975913 0
    outer loop
      vertex -7.75912 30.2198 10
      vertex -5.8463 30.6474 0
      vertex -7.75912 30.2198 0
    endloop
  endfacet
  facet normal 0.562084 -0.82708 0
    outer loop
      vertex 16.7178 -26.343 0
      vertex 18.3389 -25.2413 10
      vertex 16.7178 -26.343 10
    endloop
  endfacet
  facet normal 0.562084 -0.82708 0
    outer loop
      vertex 18.3389 -25.2413 10
      vertex 16.7178 -26.343 0
      vertex 18.3389 -25.2413 0
    endloop
  endfacet
  facet normal 0.975913 -0.21816 0
    outer loop
      vertex 30.2198 -7.75912 10
      vertex 30.6474 -5.8463 0
      vertex 30.6474 -5.8463 10
    endloop
  endfacet
  facet normal 0.975913 -0.21816 0
    outer loop
      vertex 30.6474 -5.8463 0
      vertex 30.2198 -7.75912 10
      vertex 30.2198 -7.75912 0
    endloop
  endfacet
  facet normal 0.0314281 0.999506 -0
    outer loop
      vertex 1.95906 31.1384 0
      vertex 0 31.2 10
      vertex 1.95906 31.1384 10
    endloop
  endfacet
  facet normal 0.0314281 0.999506 0
    outer loop
      vertex 0 31.2 10
      vertex 1.95906 31.1384 0
      vertex 0 31.2 0
    endloop
  endfacet
  facet normal 0.891014 -0.453976 0
    outer loop
      vertex 27.3408 -15.0307 10
      vertex 28.2306 -13.2843 0
      vertex 28.2306 -13.2843 10
    endloop
  endfacet
  facet normal 0.891014 -0.453976 0
    outer loop
      vertex 28.2306 -13.2843 0
      vertex 27.3408 -15.0307 10
      vertex 27.3408 -15.0307 0
    endloop
  endfacet
  facet normal -0.707107 0.707107 0
    outer loop
      vertex -22.7438 21.3579 0
      vertex -21.3579 22.7438 10
      vertex -21.3579 22.7438 0
    endloop
  endfacet
  facet normal -0.707107 0.707107 0
    outer loop
      vertex -21.3579 22.7438 10
      vertex -22.7438 21.3579 0
      vertex -22.7438 21.3579 10
    endloop
  endfacet
  facet normal -0.453976 -0.891014 0
    outer loop
      vertex -15.0307 -27.3408 0
      vertex -13.2843 -28.2306 10
      vertex -15.0307 -27.3408 10
    endloop
  endfacet
  facet normal -0.453976 -0.891014 -0
    outer loop
      vertex -13.2843 -28.2306 10
      vertex -15.0307 -27.3408 0
      vertex -13.2843 -28.2306 0
    endloop
  endfacet
  facet normal -0.891014 0.453976 0
    outer loop
      vertex -28.2306 13.2843 0
      vertex -27.3408 15.0307 10
      vertex -27.3408 15.0307 0
    endloop
  endfacet
  facet normal -0.891014 0.453976 0
    outer loop
      vertex -27.3408 15.0307 10
      vertex -28.2306 13.2843 0
      vertex -28.2306 13.2843 10
    endloop
  endfacet
  facet normal -0.562084 -0.82708 0
    outer loop
      vertex -18.3389 -25.2413 0
      vertex -16.7178 -26.343 10
      vertex -18.3389 -25.2413 10
    endloop
  endfacet
  facet normal -0.562084 -0.82708 -0
    outer loop
      vertex -16.7178 -26.343 10
      vertex -18.3389 -25.2413 0
      vertex -16.7178 -26.343 0
    endloop
  endfacet
  facet normal 0.278976 0.960298 -0
    outer loop
      vertex 9.64133 29.673 0
      vertex 7.75912 30.2198 10
      vertex 9.64133 29.673 10
    endloop
  endfacet
  facet normal 0.278976 0.960298 0
    outer loop
      vertex 7.75912 30.2198 10
      vertex 9.64133 29.673 0
      vertex 7.75912 30.2198 0
    endloop
  endfacet
  facet normal -0.453976 0.891014 0
    outer loop
      vertex -13.2843 28.2306 0
      vertex -15.0307 27.3408 10
      vertex -13.2843 28.2306 10
    endloop
  endfacet
  facet normal -0.453976 0.891014 0
    outer loop
      vertex -15.0307 27.3408 10
      vertex -13.2843 28.2306 0
      vertex -15.0307 27.3408 0
    endloop
  endfacet
  facet normal 0.612909 -0.790154 0
    outer loop
      vertex 18.3389 -25.2413 0
      vertex 19.8876 -24.04 10
      vertex 18.3389 -25.2413 10
    endloop
  endfacet
  facet normal 0.612909 -0.790154 0
    outer loop
      vertex 19.8876 -24.04 10
      vertex 18.3389 -25.2413 0
      vertex 19.8876 -24.04 0
    endloop
  endfacet
  facet normal -0.612909 -0.790154 0
    outer loop
      vertex -19.8876 -24.04 0
      vertex -18.3389 -25.2413 10
      vertex -19.8876 -24.04 10
    endloop
  endfacet
  facet normal -0.612909 -0.790154 -0
    outer loop
      vertex -18.3389 -25.2413 10
      vertex -19.8876 -24.04 0
      vertex -18.3389 -25.2413 0
    endloop
  endfacet
  facet normal 0 1 -0
    outer loop
      vertex 15 -25.9808 0
      vertex -15 -25.9808 10
      vertex 15 -25.9808 10
    endloop
  endfacet
  facet normal 0 1 0
    outer loop
      vertex -15 -25.9808 10
      vertex 15 -25.9808 0
      vertex -15 -25.9808 0
    endloop
  endfacet
  facet normal -0.866025 0.5 0
    outer loop
      vertex 29.3072 -1.2 0
      vertex 15 -25.9808 0
      vertex 29.3072 -1.2 2.4
    endloop
  endfacet
  facet normal -0.866032 0.499989 0
    outer loop
      vertex 29.3072 -1.2 2.4
      vertex 30 0 10
      vertex 30 0 2.4
    endloop
  endfacet
  facet normal -0.866025 0.5 0
    outer loop
      vertex 15 -25.9808 10
      vertex 29.3072 -1.2 2.4
      vertex 15 -25.9808 0
    endloop
  endfacet
  facet normal -0.866026 0.499999 -2.2007e-06
    outer loop
      vertex 29.3072 -1.2 2.4
      vertex 15 -25.9808 10
      vertex 30 0 10
    endloop
  endfacet
  facet normal 0 -1 0
    outer loop
      vertex -15 25.9808 10
      vertex 13.6144 25.9808 2.4
      vertex 15 25.9808 10
    endloop
  endfacet
  facet normal 0 -1 0
    outer loop
      vertex -15 25.9808 0
      vertex 13.6144 25.9808 2.4
      vertex -15 25.9808 10
    endloop
  endfacet
  facet normal 0 -1 -0
    outer loop
      vertex 13.6144 25.9808 2.4
      vertex -15 25.9808 0
      vertex 13.6144 25.9808 0
    endloop
  endfacet
  facet normal 0 -1 0
    outer loop
      vertex 15 25.9808 2.4
      vertex 15 25.9808 10
      vertex 13.6144 25.9808 2.4
    endloop
  endfacet
  facet normal 0 -0 0
    outer loop
      vertex 15 25.9808 2.4
      vertex 15 25.9808 0
      vertex 15 25.9808 10
    endloop
  endfacet
  facet normal -0.866024 -0.500003 0
    outer loop
      vertex 23.1 11.9511 0
      vertex 29.3072 1.2 0
      vertex 23.1 11.9511 2.4
    endloop
  endfacet
  facet normal -0.866026 -0.5 0
    outer loop
      vertex 15.6928 24.7808 0
      vertex 21.9 14.0296 0
      vertex 15.6928 24.7808 2.4
    endloop
  endfacet
  facet normal 0 0 0
    outer loop
      vertex 15 25.9808 0
      vertex 15 25.9808 2.4
      vertex 15 25.9808 10
    endloop
  endfacet
  facet normal -0.866032 -0.499989 0
    outer loop
      vertex 15.6928 24.7808 2.4
      vertex 15 25.9808 10
      vertex 15 25.9808 2.4
    endloop
  endfacet
  facet normal -0.866026 -0.5 -0
    outer loop
      vertex 21.9 14.0296 2.4
      vertex 15.6928 24.7808 2.4
      vertex 21.9 14.0296 0
    endloop
  endfacet
  facet normal -0.866026 -0.5 2.21135e-06
    outer loop
      vertex 15.6928 24.7808 2.4
      vertex 21.9 14.0296 2.4
      vertex 15 25.9808 10
    endloop
  endfacet
  facet normal -0.866029 -0.499993 -1.1513e-05
    outer loop
      vertex 23.1 11.9511 2.4
      vertex 15 25.9808 10
      vertex 21.9 14.0296 2.4
    endloop
  endfacet
  facet normal -0.866024 -0.500003 -0
    outer loop
      vertex 29.3072 1.2 2.4
      vertex 23.1 11.9511 2.4
      vertex 29.3072 1.2 0
    endloop
  endfacet
  facet normal -0.866024 -0.500003 -2.94566e-06
    outer loop
      vertex 30 0 10
      vertex 23.1 11.9511 2.4
      vertex 29.3072 1.2 2.4
    endloop
  endfacet
  facet normal -0.866032 -0.499989 -0
    outer loop
      vertex 30 0 10
      vertex 29.3072 1.2 2.4
      vertex 30 0 2.4
    endloop
  endfacet
  facet normal -0.866026 -0.499999 4.47368e-06
    outer loop
      vertex 23.1 11.9511 2.4
      vertex 30 0 10
      vertex 15 25.9808 10
    endloop
  endfacet
  facet normal 0.866026 -0.499999 0
    outer loop
      vertex -30 0 10
      vertex -15 25.9808 0
      vertex -15 25.9808 10
    endloop
  endfacet
  facet normal 0.866026 -0.499999 0
    outer loop
      vertex -15 25.9808 0
      vertex -30 0 10
      vertex -30 0 0
    endloop
  endfacet
  facet normal 0.866026 0.499999 0
    outer loop
      vertex -15 -25.9808 10
      vertex -30 0 0
      vertex -30 0 10
    endloop
  endfacet
  facet normal 0.866026 0.499999 0
    outer loop
      vertex -30 0 0
      vertex -15 -25.9808 10
      vertex -15 -25.9808 0
    endloop
  endfacet
  facet normal 0 0 1
    outer loop
      vertex 21.9 14.0296 2.4
      vertex 4.47845 1.2 2.4
      vertex 23.1 11.9511 2.4
    endloop
  endfacet
  facet normal 0 -0 1
    outer loop
      vertex 4.47845 1.2 2.4
      vertex 21.9 14.0296 2.4
      vertex 3.27846 3.27846 2.4
    endloop
  endfacet
  facet normal 0 0 1
    outer loop
      vertex 29.3072 1.2 2.4
      vertex 29.3072 -1.2 2.4
      vertex 30 0 2.4
    endloop
  endfacet
  facet normal -0 0 1
    outer loop
      vertex 4.47845 1.2 2.4
      vertex 29.3072 -1.2 2.4
      vertex 29.3072 1.2 2.4
    endloop
  endfacet
  facet normal 0 0 1
    outer loop
      vertex 4.47845 1.2 2.4
      vertex 0 -1.2 2.4
      vertex 29.3072 -1.2 2.4
    endloop
  endfacet
  facet normal 0 0 1
    outer loop
      vertex 0 -1.2 2.4
      vertex 4.47845 1.2 2.4
      vertex 3.27846 3.27846 2.4
    endloop
  endfacet
  facet normal 0 0 1
    outer loop
      vertex 15 25.9808 2.4
      vertex 13.6144 25.9808 2.4
      vertex 15.6928 24.7808 2.4
    endloop
  endfacet
  facet normal 0 0 1
    outer loop
      vertex 13.6144 25.9808 2.4
      vertex 3.27846 3.27846 2.4
      vertex 15.6928 24.7808 2.4
    endloop
  endfacet
  facet normal 0 0 1
    outer loop
      vertex -1.03923 0.600006 2.4
      vertex 3.27846 3.27846 2.4
      vertex 13.6144 25.9808 2.4
    endloop
  endfacet
  facet normal 0 0 1
    outer loop
      vertex 3.27846 3.27846 2.4
      vertex -1.03923 0.600006 2.4
      vertex 0 -1.2 2.4
    endloop
  endfacet
  facet normal 0 0 1
    outer loop
      vertex 0 -1.2 2.4
      vertex -1.03923 0.600006 2.4
      vertex -0.132004 -1.19272 2.4
    endloop
  endfacet
  facet normal 0 0 1
    outer loop
      vertex -0.132004 -1.19272 2.4
      vertex -1.03923 0.600006 2.4
      vertex -0.326523 -1.15472 2.4
    endloop
  endfacet
  facet normal 0 0 1
    outer loop
      vertex -0.326523 -1.15472 2.4
      vertex -1.03923 0.600006 2.4
      vertex -0.512131 -1.08524 2.4
    endloop
  endfacet
  facet normal 0 0 1
    outer loop
      vertex -0.512131 -1.08524 2.4
      vertex -1.03923 0.600006 2.4
      vertex -0.683777 -0.98613 2.4
    endloop
  endfacet
  facet normal 0 0 1
    outer loop
      vertex -0.683777 -0.98613 2.4
      vertex -1.03923 0.600006 2.4
      vertex -0.836761 -0.860138 2.4
    endloop
  endfacet
  facet normal 0 0 1
    outer loop
      vertex -0.836761 -0.860138 2.4
      vertex -1.03923 0.600006 2.4
      vertex -0.966919 -0.710678 2.4
    endloop
  endfacet
  facet normal 0 0 1
    outer loop
      vertex -1.03923 0.600006 2.4
      vertex -1.07071 -0.54184 2.4
      vertex -0.966919 -0.710678 2.4
    endloop
  endfacet
  facet normal -0 0 1
    outer loop
      vertex -1.12381 0.420761 2.4
      vertex -1.07071 -0.54184 2.4
      vertex -1.03923 0.600006 2.4
    endloop
  endfacet
  facet normal 0 0 1
    outer loop
      vertex -1.12381 0.420761 2.4
      vertex -1.14528 -0.358215 2.4
      vertex -1.07071 -0.54184 2.4
    endloop
  endfacet
  facet normal -0 0 1
    outer loop
      vertex -1.17773 0.230057 2.4
      vertex -1.14528 -0.358215 2.4
      vertex -1.12381 0.420761 2.4
    endloop
  endfacet
  facet normal 0 0 1
    outer loop
      vertex -1.17773 0.230057 2.4
      vertex -1.18863 -0.164825 2.4
      vertex -1.14528 -0.358215 2.4
    endloop
  endfacet
  facet normal 0 -0 1
    outer loop
      vertex -1.18863 -0.164825 2.4
      vertex -1.17773 0.230057 2.4
      vertex -1.19954 0.0330658 2.4
    endloop
  endfacet
  facet normal 0 1 -0
    outer loop
      vertex 29.3072 1.2 0
      vertex 4.47845 1.2 2.4
      vertex 29.3072 1.2 2.4
    endloop
  endfacet
  facet normal 0 1 0
    outer loop
      vertex 4.47845 1.2 2.4
      vertex 29.3072 1.2 0
      vertex 4.47845 1.2 0
    endloop
  endfacet
  facet normal 0.499998 -0.866027 0
    outer loop
      vertex 4.47845 1.2 0
      vertex 23.1 11.9511 2.4
      vertex 4.47845 1.2 2.4
    endloop
  endfacet
  facet normal 0.499998 -0.866027 0
    outer loop
      vertex 23.1 11.9511 2.4
      vertex 4.47845 1.2 0
      vertex 23.1 11.9511 0
    endloop
  endfacet
  facet normal -0.5 0.866026 0
    outer loop
      vertex 21.9 14.0296 0
      vertex 3.27846 3.27846 2.4
      vertex 21.9 14.0296 2.4
    endloop
  endfacet
  facet normal -0.5 0.866026 0
    outer loop
      vertex 3.27846 3.27846 2.4
      vertex 21.9 14.0296 0
      vertex 3.27846 3.27846 0
    endloop
  endfacet
  facet normal 0.866026 -0.499999 0
    outer loop
      vertex 3.27846 3.27846 2.4
      vertex 15.6928 24.7808 0
      vertex 15.6928 24.7808 2.4
    endloop
  endfacet
  facet normal 0.866026 -0.499999 0
    outer loop
      vertex 15.6928 24.7808 0
      vertex 3.27846 3.27846 2.4
      vertex 3.27846 3.27846 0
    endloop
  endfacet
  facet normal -0.866025 0.500001 0
    outer loop
      vertex -1.03923 0.600006 0
      vertex 13.6144 25.9808 2.4
      vertex 13.6144 25.9808 0
    endloop
  endfacet
  facet normal -0.866025 0.500001 0
    outer loop
      vertex 13.6144 25.9808 2.4
      vertex -1.03923 0.600006 0
      vertex -1.03923 0.600006 2.4
    endloop
  endfacet
  facet normal -0.904372 0.426744 0
    outer loop
      vertex -1.12381 0.420761 0
      vertex -1.03923 0.600006 2.4
      vertex -1.03923 0.600006 0
    endloop
  endfacet
  facet normal -0.904372 0.426744 0
    outer loop
      vertex -1.03923 0.600006 2.4
      vertex -1.12381 0.420761 0
      vertex -1.12381 0.420761 2.4
    endloop
  endfacet
  facet normal -0.962276 0.272076 0
    outer loop
      vertex -1.17773 0.230057 0
      vertex -1.12381 0.420761 2.4
      vertex -1.12381 0.420761 0
    endloop
  endfacet
  facet normal -0.962276 0.272076 0
    outer loop
      vertex -1.12381 0.420761 2.4
      vertex -1.17773 0.230057 0
      vertex -1.17773 0.230057 2.4
    endloop
  endfacet
  facet normal -0.993927 0.110043 0
    outer loop
      vertex -1.19954 0.0330658 0
      vertex -1.17773 0.230057 2.4
      vertex -1.17773 0.230057 0
    endloop
  endfacet
  facet normal -0.993927 0.110043 0
    outer loop
      vertex -1.17773 0.230057 2.4
      vertex -1.19954 0.0330658 0
      vertex -1.19954 0.0330658 2.4
    endloop
  endfacet
  facet normal -0.998484 -0.0550478 0
    outer loop
      vertex -1.18863 -0.164825 0
      vertex -1.19954 0.0330658 2.4
      vertex -1.19954 0.0330658 0
    endloop
  endfacet
  facet normal -0.998484 -0.0550478 0
    outer loop
      vertex -1.19954 0.0330658 2.4
      vertex -1.18863 -0.164825 0
      vertex -1.18863 -0.164825 2.4
    endloop
  endfacet
  facet normal -0.975785 -0.218731 0
    outer loop
      vertex -1.14528 -0.358215 0
      vertex -1.18863 -0.164825 2.4
      vertex -1.18863 -0.164825 0
    endloop
  endfacet
  facet normal -0.975785 -0.218731 0
    outer loop
      vertex -1.18863 -0.164825 2.4
      vertex -1.14528 -0.358215 0
      vertex -1.14528 -0.358215 2.4
    endloop
  endfacet
  facet normal -0.926515 -0.376257 0
    outer loop
      vertex -1.07071 -0.54184 0
      vertex -1.14528 -0.358215 2.4
      vertex -1.14528 -0.358215 0
    endloop
  endfacet
  facet normal -0.926515 -0.376257 0
    outer loop
      vertex -1.14528 -0.358215 2.4
      vertex -1.07071 -0.54184 0
      vertex -1.07071 -0.54184 2.4
    endloop
  endfacet
  facet normal -0.851904 -0.523697 0
    outer loop
      vertex -0.966919 -0.710678 0
      vertex -1.07071 -0.54184 2.4
      vertex -1.07071 -0.54184 0
    endloop
  endfacet
  facet normal -0.851904 -0.523697 0
    outer loop
      vertex -1.07071 -0.54184 2.4
      vertex -0.966919 -0.710678 0
      vertex -0.966919 -0.710678 2.4
    endloop
  endfacet
  facet normal -0.754124 -0.656732 0
    outer loop
      vertex -0.836761 -0.860138 0
      vertex -0.966919 -0.710678 2.4
      vertex -0.966919 -0.710678 0
    endloop
  endfacet
  facet normal -0.754124 -0.656732 0
    outer loop
      vertex -0.966919 -0.710678 2.4
      vertex -0.836761 -0.860138 0
      vertex -0.836761 -0.860138 2.4
    endloop
  endfacet
  facet normal -0.635723 -0.771917 0
    outer loop
      vertex -0.836761 -0.860138 0
      vertex -0.683777 -0.98613 2.4
      vertex -0.836761 -0.860138 2.4
    endloop
  endfacet
  facet normal -0.635723 -0.771917 -0
    outer loop
      vertex -0.683777 -0.98613 2.4
      vertex -0.836761 -0.860138 0
      vertex -0.683777 -0.98613 0
    endloop
  endfacet
  facet normal -0.500038 -0.866003 0
    outer loop
      vertex -0.683777 -0.98613 0
      vertex -0.512131 -1.08524 2.4
      vertex -0.683777 -0.98613 2.4
    endloop
  endfacet
  facet normal -0.500038 -0.866003 -0
    outer loop
      vertex -0.512131 -1.08524 2.4
      vertex -0.683777 -0.98613 0
      vertex -0.512131 -1.08524 0
    endloop
  endfacet
  facet normal -0.350579 -0.936533 0
    outer loop
      vertex -0.512131 -1.08524 0
      vertex -0.326523 -1.15472 2.4
      vertex -0.512131 -1.08524 2.4
    endloop
  endfacet
  facet normal -0.350579 -0.936533 -0
    outer loop
      vertex -0.326523 -1.15472 2.4
      vertex -0.512131 -1.08524 0
      vertex -0.326523 -1.15472 0
    endloop
  endfacet
  facet normal -0.191729 -0.981448 0
    outer loop
      vertex -0.326523 -1.15472 0
      vertex -0.132004 -1.19272 2.4
      vertex -0.326523 -1.15472 2.4
    endloop
  endfacet
  facet normal -0.191729 -0.981448 -0
    outer loop
      vertex -0.132004 -1.19272 2.4
      vertex -0.326523 -1.15472 0
      vertex -0.132004 -1.19272 0
    endloop
  endfacet
  facet normal -0.0550662 -0.998483 0
    outer loop
      vertex -0.132004 -1.19272 0
      vertex 0 -1.2 2.4
      vertex -0.132004 -1.19272 2.4
    endloop
  endfacet
  facet normal -0.0550662 -0.998483 -0
    outer loop
      vertex 0 -1.2 2.4
      vertex -0.132004 -1.19272 0
      vertex 0 -1.2 0
    endloop
  endfacet
  facet normal 0 -1 0
    outer loop
      vertex 0 -1.2 0
      vertex 29.3072 -1.2 2.4
      vertex 0 -1.2 2.4
    endloop
  endfacet
  facet normal 0 -1 -0
    outer loop
      vertex 29.3072 -1.2 2.4
      vertex 0 -1.2 0
      vertex 29.3072 -1.2 0
    endloop
  endfacet
endsolid OpenSCAD_Model
