solid OpenSCAD_Model
  facet normal -0 -0 -1
    outer loop
      vertex 12.3744 12.3744 0
      vertex 17.5 0 0
      vertex 0 17.5 0
    endloop
  endfacet
  facet normal 0 0 -1
    outer loop
      vertex 0 17.5 0
      vertex -17.5 0 0
      vertex -12.3744 12.3744 0
    endloop
  endfacet
  facet normal 0 0 -1
    outer loop
      vertex 0 -17.5 0
      vertex -17.5 0 0
      vertex 0 17.5 0
    endloop
  endfacet
  facet normal -0 0 -1
    outer loop
      vertex 17.5 0 0
      vertex 0 -17.5 0
      vertex 0 17.5 0
    endloop
  endfacet
  facet normal 0 0 -1
    outer loop
      vertex -17.5 0 0
      vertex 0 -17.5 0
      vertex -12.3744 -12.3744 0
    endloop
  endfacet
  facet normal 0 0 -1
    outer loop
      vertex 17.5 0 0
      vertex 12.3744 -12.3744 0
      vertex 0 -17.5 0
    endloop
  endfacet
  facet normal 0 0 1
    outer loop
      vertex 0 17.5 10
      vertex 17.5 0 10
      vertex 12.3744 12.3744 10
    endloop
  endfacet
  facet normal -0 0 1
    outer loop
      vertex -12.3744 12.3744 10
      vertex -17.5 0 10
      vertex 0 17.5 10
    endloop
  endfacet
  facet normal 0 0 1
    outer loop
      vertex 0 17.5 10
      vertex -17.5 0 10
      vertex 0 -17.5 10
    endloop
  endfacet
  facet normal 0 0 1
    outer loop
      vertex 0 17.5 10
      vertex 0 -17.5 10
      vertex 17.5 0 10
    endloop
  endfacet
  facet normal -0 -0 1
    outer loop
      vertex -12.3744 -12.3744 10
      vertex 0 -17.5 10
      vertex -17.5 0 10
    endloop
  endfacet
  facet normal 0 0 1
    outer loop
      vertex 0 -17.5 10
      vertex 12.3744 -12.3744 10
      vertex 17.5 0 10
    endloop
  endfacet
  facet normal 0.923881 0.382681 0
    outer loop
      vertex 12.3744 12.3744 0
      vertex 17.5 0 10
      vertex 17.5 0 0
    endloop
  endfacet
  facet normal 0.923881 0.382681 -0
    outer loop
      vertex 12.3744 12.3744 0
      vertex 12.3744 12.3744 10
      vertex 17.5 0 10
    endloop
  endfacet
  facet normal 0.382681 0.923881 0
    outer loop
      vertex 0 17.5 0
      vertex 12.3744 12.3744 10
      vertex 12.3744 12.3744 0
    endloop
  endfacet
  facet normal 0.382681 0.923881 -0
    outer loop
      vertex 0 17.5 0
      vertex 0 17.5 10
      vertex 12.3744 12.3744 10
    endloop
  endfacet
  facet normal -0.382681 0.923881 0
    outer loop
      vertex -12.3744 12.3744 0
      vertex 0 17.5 10
      vertex 0 17.5 0
    endloop
  endfacet
  facet normal -0.382681 0.923881 0
    outer loop
      vertex -12.3744 12.3744 0
      vertex -12.3744 12.3744 10
      vertex 0 17.5 10
    endloop
  endfacet
  facet normal -0.923881 0.382681 0
    outer loop
      vertex -17.5 0 0
      vertex -12.3744 12.3744 10
      vertex -12.3744 12.3744 0
    endloop
  endfacet
  facet normal -0.923881 0.382681 0
    outer loop
      vertex -17.5 0 0
      vertex -17.5 0 10
      vertex -12.3744 12.3744 10
    endloop
  endfacet
  facet normal -0.923881 -0.382681 0
    outer loop
      vertex -12.3744 -12.3744 0
      vertex -17.5 0 10
      vertex -17.5 0 0
    endloop
  endfacet
  facet normal -0.923881 -0.382681 0
    outer loop
      vertex -12.3744 -12.3744 0
      vertex -12.3744 -12.3744 10
      vertex -17.5 0 10
    endloop
  endfacet
  facet normal -0.382681 -0.923881 0
    outer loop
      vertex 0 -17.5 0
      vertex -12.3744 -12.3744 10
      vertex -12.3744 -12.3744 0
    endloop
  endfacet
  facet normal -0.382681 -0.923881 0
    outer loop
      vertex 0 -17.5 0
      vertex 0 -17.5 10
      vertex -12.3744 -12.3744 10
    endloop
  endfacet
  facet normal 0.382681 -0.923881 0
    outer loop
      vertex 12.3744 -12.3744 0
      vertex 0 -17.5 10
      vertex 0 -17.5 0
    endloop
  endfacet
  facet normal 0.382681 -0.923881 0
    outer loop
      vertex 12.3744 -12.3744 0
      vertex 12.3744 -12.3744 10
      vertex 0 -17.5 10
    endloop
  endfacet
  facet normal 0.923881 -0.382681 0
    outer loop
      vertex 17.5 0 0
      vertex 12.3744 -12.3744 10
      vertex 12.3744 -12.3744 0
    endloop
  endfacet
  facet normal 0.923881 -0.382681 0
    outer loop
      vertex 17.5 0 0
      vertex 17.5 0 10
      vertex 12.3744 -12.3744 10
    endloop
  endfacet
endsolid OpenSCAD_Model
