solid OpenSCAD_Model
  facet normal 0 0 -1
    outer loop
      vertex 5.4078 16.6435 0
      vertex 17.5 0 0
      vertex 5.4078 -16.6435 0
    endloop
  endfacet
  facet normal 0 0 -1
    outer loop
      vertex -14.1578 10.2862 0
      vertex 5.4078 -16.6435 0
      vertex -14.1578 -10.2862 0
    endloop
  endfacet
  facet normal 0 -0 -1
    outer loop
      vertex 5.4078 16.6435 0
      vertex 5.4078 -16.6435 0
      vertex -14.1578 10.2862 0
    endloop
  endfacet
  facet normal 0 0 1
    outer loop
      vertex 5.4078 -16.6435 10
      vertex 17.5 0 10
      vertex 5.4078 16.6435 10
    endloop
  endfacet
  facet normal -0 0 1
    outer loop
      vertex -14.1578 -10.2862 10
      vertex 5.4078 -16.6435 10
      vertex -14.1578 10.2862 10
    endloop
  endfacet
  facet normal -0 0 1
    outer loop
      vertex -14.1578 10.2862 10
      vertex 5.4078 -16.6435 10
      vertex 5.4078 16.6435 10
    endloop
  endfacet
  facet normal 0.809017 0.587785 0
    outer loop
      vertex 5.4078 16.6435 0
      vertex 17.5 0 10
      vertex 17.5 0 0
    endloop
  endfacet
  facet normal 0.809017 0.587785 -0
    outer loop
      vertex 5.4078 16.6435 0
      vertex 5.4078 16.6435 10
      vertex 17.5 0 10
    endloop
  endfacet
  facet normal -0.309019 0.951056 0
    outer loop
      vertex -14.1578 10.2862 0
      vertex 5.4078 16.6435 10
      vertex 5.4078 16.6435 0
    endloop
  endfacet
  facet normal -0.309019 0.951056 0
    outer loop
      vertex -14.1578 10.2862 0
      vertex -14.1578 10.2862 10
      vertex 5.4078 16.6435 10
    endloop
  endfacet
  facet normal -1 0 0
    outer loop
      vertex -14.1578 -10.2862 0
      vertex -14.1578 10.2862 10
      vertex -14.1578 10.2862 0
    endloop
  endfacet
  facet normal -1 0 0
    outer loop
      vertex -14.1578 -10.2862 0
      vertex -14.1578 -10.2862 10
      vertex -14.1578 10.2862 10
    endloop
  endfacet
  facet normal -0.309019 -0.951056 0
    outer loop
      vertex 5.4078 -16.6435 0
      vertex -14.1578 -10.2862 10
      vertex -14.1578 -10.2862 0
    endloop
  endfacet
  facet normal -0.309019 -0.951056 0
    outer loop
      vertex 5.4078 -16.6435 0
      vertex 5.4078 -16.6435 10
      vertex -14.1578 -10.2862 10
    endloop
  endfacet
  facet normal 0.809017 -0.587785 0
    outer loop
      vertex 17.5 0 0
      vertex 5.4078 -16.6435 10
      vertex 5.4078 -16.6435 0
    endloop
  endfacet
  facet normal 0.809017 -0.587785 0
    outer loop
      vertex 17.5 0 0
      vertex 17.5 0 10
      vertex 5.4078 -16.6435 10
    endloop
  endfacet
endsolid OpenSCAD_Model
