solid OpenSCAD_Model
  facet normal 0 0 -1
    outer loop
      vertex -26.5 -26.5 0
      vertex 26.5 26.5 0
      vertex 26.5 -26.5 0
    endloop
  endfacet
  facet normal -0 0 -1
    outer loop
      vertex 26.5 26.5 0
      vertex -26.5 -26.5 0
      vertex -26.5 26.5 0
    endloop
  endfacet
  facet normal -1 0 0
    outer loop
      vertex -26.5 -26.5 0
      vertex -26.5 26.5 52
      vertex -26.5 26.5 0
    endloop
  endfacet
  facet normal -1 -0 0
    outer loop
      vertex -26.5 26.5 52
      vertex -26.5 -26.5 0
      vertex -26.5 -26.5 52
    endloop
  endfacet
  facet normal -0 0 1
    outer loop
      vertex -25.5 25.5 1
      vertex 25.5 -25.5 1
      vertex 25.5 25.5 1
    endloop
  endfacet
  facet normal 0 0 1
    outer loop
      vertex 25.5 -25.5 1
      vertex -25.5 25.5 1
      vertex -25.5 -25.5 1
    endloop
  endfacet
  facet normal 0 1 -0
    outer loop
      vertex 26.5 26.5 0
      vertex -26.5 26.5 52
      vertex 26.5 26.5 52
    endloop
  endfacet
  facet normal 0 1 0
    outer loop
      vertex -26.5 26.5 52
      vertex 26.5 26.5 0
      vertex -26.5 26.5 0
    endloop
  endfacet
  facet normal 1 -0 0
    outer loop
      vertex 26.5 -26.5 52
      vertex 26.5 26.5 0
      vertex 26.5 26.5 52
    endloop
  endfacet
  facet normal 1 0 0
    outer loop
      vertex 26.5 26.5 0
      vertex 26.5 -26.5 52
      vertex 26.5 -26.5 0
    endloop
  endfacet
  facet normal 0 -1 0
    outer loop
      vertex -26.5 -26.5 0
      vertex 26.5 -26.5 52
      vertex -26.5 -26.5 52
    endloop
  endfacet
  facet normal 0 -1 -0
    outer loop
      vertex 26.5 -26.5 52
      vertex -26.5 -26.5 0
      vertex 26.5 -26.5 0
    endloop
  endfacet
  facet normal 0 0 1
    outer loop
      vertex 26.5 26.5 52
      vertex 25.5 25.5 52
      vertex 26.5 -26.5 52
    endloop
  endfacet
  facet normal 0 0 1
    outer loop
      vertex 26.5 26.5 52
      vertex -25.5 25.5 52
      vertex 25.5 25.5 52
    endloop
  endfacet
  facet normal 0 0 1
    outer loop
      vertex -25.5 25.5 52
      vertex -26.5 26.5 52
      vertex -25.5 -25.5 52
    endloop
  endfacet
  facet normal -0 0 1
    outer loop
      vertex -26.5 26.5 52
      vertex -25.5 25.5 52
      vertex 26.5 26.5 52
    endloop
  endfacet
  facet normal -0 0 1
    outer loop
      vertex 25.5 -25.5 52
      vertex 26.5 -26.5 52
      vertex 25.5 25.5 52
    endloop
  endfacet
  facet normal -0 0 1
    outer loop
      vertex -25.5 -25.5 52
      vertex 26.5 -26.5 52
      vertex 25.5 -25.5 52
    endloop
  endfacet
  facet normal 0 0 1
    outer loop
      vertex -25.5 -25.5 52
      vertex -26.5 -26.5 52
      vertex 26.5 -26.5 52
    endloop
  endfacet
  facet normal 0 0 1
    outer loop
      vertex -26.5 -26.5 52
      vertex -25.5 -25.5 52
      vertex -26.5 26.5 52
    endloop
  endfacet
  facet normal 1 -0 0
    outer loop
      vertex -25.5 -25.5 52
      vertex -25.5 25.5 1
      vertex -25.5 25.5 52
    endloop
  endfacet
  facet normal 1 0 0
    outer loop
      vertex -25.5 25.5 1
      vertex -25.5 -25.5 52
      vertex -25.5 -25.5 1
    endloop
  endfacet
  facet normal 0 -1 0
    outer loop
      vertex -25.5 25.5 1
      vertex 25.5 25.5 52
      vertex -25.5 25.5 52
    endloop
  endfacet
  facet normal 0 -1 -0
    outer loop
      vertex 25.5 25.5 52
      vertex -25.5 25.5 1
      vertex 25.5 25.5 1
    endloop
  endfacet
  facet normal -1 0 0
    outer loop
      vertex 25.5 -25.5 1
      vertex 25.5 25.5 52
      vertex 25.5 25.5 1
    endloop
  endfacet
  facet normal -1 -0 0
    outer loop
      vertex 25.5 25.5 52
      vertex 25.5 -25.5 1
      vertex 25.5 -25.5 52
    endloop
  endfacet
  facet normal 0 1 -0
    outer loop
      vertex 25.5 -25.5 1
      vertex -25.5 -25.5 52
      vertex 25.5 -25.5 52
    endloop
  endfacet
  facet normal 0 1 0
    outer loop
      vertex -25.5 -25.5 52
      vertex 25.5 -25.5 1
      vertex -25.5 -25.5 1
    endloop
  endfacet
endsolid OpenSCAD_Model
