solid OpenSCAD_Model
  facet normal 0 0 -1
    outer loop
      vertex 0 0 0
      vertex 60 45 0
      vertex 60 0 0
    endloop
  endfacet
  facet normal 0 -0 1
    outer loop
      vertex 60 0 10
      vertex 60 45 10
      vertex 0 0 10
    endloop
  endfacet
  facet normal -0.6 0.8 0
    outer loop
      vertex 0 0 0
      vertex 60 45 10
      vertex 60 45 0
    endloop
  endfacet
  facet normal -0.6 0.8 0
    outer loop
      vertex 0 0 0
      vertex 0 0 10
      vertex 60 45 10
    endloop
  endfacet
  facet normal 0 -1 0
    outer loop
      vertex 60 0 0
      vertex 0 0 10
      vertex 0 0 0
    endloop
  endfacet
  facet normal 0 -1 0
    outer loop
      vertex 60 0 0
      vertex 60 0 10
      vertex 0 0 10
    endloop
  endfacet
  facet normal 1 0 0
    outer loop
      vertex 60 45 0
      vertex 60 0 10
      vertex 60 0 0
    endloop
  endfacet
  facet normal 1 0 -0
    outer loop
      vertex 60 45 0
      vertex 60 45 10
      vertex 60 0 10
    endloop
  endfacet
endsolid OpenSCAD_Model
