solid OpenSCAD_Model
  facet normal 0 0 -1
    outer loop
      vertex 0 54.8462 0
      vertex 31.5 71 0
      vertex 0 1 0
    endloop
  endfacet
  facet normal 0 0 -1
    outer loop
      vertex 106 0 0
      vertex 32.5 16.1538 0
      vertex 106 53.8462 0
    endloop
  endfacet
  facet normal 0 0 -1
    outer loop
      vertex 32.5 0 0
      vertex 32.5 16.1538 0
      vertex 106 0 0
    endloop
  endfacet
  facet normal 0 0 -1
    outer loop
      vertex 31.5 0 0
      vertex 0 0 0
      vertex 31.5 16.1538 0
    endloop
  endfacet
  facet normal 0 0 1
    outer loop
      vertex 0 1 20
      vertex 31.5 71 20
      vertex 0 54.8462 20
    endloop
  endfacet
  facet normal 0 0 1
    outer loop
      vertex 106 53.8462 20
      vertex 32.5 16.1538 20
      vertex 106 0 20
    endloop
  endfacet
  facet normal 0 0 1
    outer loop
      vertex 106 0 20
      vertex 32.5 16.1538 20
      vertex 32.5 0 20
    endloop
  endfacet
  facet normal 0 0 1
    outer loop
      vertex 31.5 16.1538 20
      vertex 0 0 20
      vertex 31.5 0 20
    endloop
  endfacet
  facet normal -0.456316 0.889818 0
    outer loop
      vertex 0 54.8462 0
      vertex 31.5 71 20
      vertex 31.5 71 0
    endloop
  endfacet
  facet normal -0.456316 0.889818 0
    outer loop
      vertex 0 54.8462 0
      vertex 0 54.8462 20
      vertex 31.5 71 20
    endloop
  endfacet
  facet normal -1 0 0
    outer loop
      vertex 0 1 0
      vertex 0 54.8462 20
      vertex 0 54.8462 0
    endloop
  endfacet
  facet normal -1 0 0
    outer loop
      vertex 0 1 0
      vertex 0 1 20
      vertex 0 54.8462 20
    endloop
  endfacet
  facet normal 0.911922 -0.410365 0
    outer loop
      vertex 31.5 71 0
      vertex 0 1 20
      vertex 0 1 0
    endloop
  endfacet
  facet normal 0.911922 -0.410365 0
    outer loop
      vertex 31.5 71 0
      vertex 31.5 71 20
      vertex 0 1 20
    endloop
  endfacet
  facet normal -0.456318 0.889817 0
    outer loop
      vertex 32.5 16.1538 0
      vertex 106 53.8462 20
      vertex 106 53.8462 0
    endloop
  endfacet
  facet normal -0.456318 0.889817 0
    outer loop
      vertex 32.5 16.1538 0
      vertex 32.5 16.1538 20
      vertex 106 53.8462 20
    endloop
  endfacet
  facet normal -1 0 0
    outer loop
      vertex 32.5 0 0
      vertex 32.5 16.1538 20
      vertex 32.5 16.1538 0
    endloop
  endfacet
  facet normal -1 0 0
    outer loop
      vertex 32.5 0 0
      vertex 32.5 0 20
      vertex 32.5 16.1538 20
    endloop
  endfacet
  facet normal 0 -1 0
    outer loop
      vertex 106 0 0
      vertex 32.5 0 20
      vertex 32.5 0 0
    endloop
  endfacet
  facet normal 0 -1 0
    outer loop
      vertex 106 0 0
      vertex 106 0 20
      vertex 32.5 0 20
    endloop
  endfacet
  facet normal 1 0 0
    outer loop
      vertex 106 53.8462 0
      vertex 106 0 20
      vertex 106 0 0
    endloop
  endfacet
  facet normal 1 0 -0
    outer loop
      vertex 106 53.8462 0
      vertex 106 53.8462 20
      vertex 106 0 20
    endloop
  endfacet
  facet normal -0.456316 0.889818 0
    outer loop
      vertex 0 0 0
      vertex 31.5 16.1538 20
      vertex 31.5 16.1538 0
    endloop
  endfacet
  facet normal -0.456316 0.889818 0
    outer loop
      vertex 0 0 0
      vertex 0 0 20
      vertex 31.5 16.1538 20
    endloop
  endfacet
  facet normal 0 -1 0
    outer loop
      vertex 31.5 0 0
      vertex 0 0 20
      vertex 0 0 0
    endloop
  endfacet
  facet normal 0 -1 0
    outer loop
      vertex 31.5 0 0
      vertex 31.5 0 20
      vertex 0 0 20
    endloop
  endfacet
  facet normal 1 0 0
    outer loop
      vertex 31.5 16.1538 0
      vertex 31.5 0 20
      vertex 31.5 0 0
    endloop
  endfacet
  facet normal 1 0 -0
    outer loop
      vertex 31.5 16.1538 0
      vertex 31.5 16.1538 20
      vertex 31.5 0 20
    endloop
  endfacet
endsolid OpenSCAD_Model
